/* XPM */
static char *f759634f2d2d4c3cfb8ec5eaacaa9095rtxtCXeyacu7P2QI[] = {
/* columns rows colors chars-per-pixel */
"64 64 208 2 ",
"   c None",
".  c #0A0909",
"X  c #100F0F",
"o  c #1F1E1E",
"O  c #743838",
"+  c #6F3131",
"@  c #6A632D",
"#  c #756C29",
"$  c #796F25",
"%  c #787036",
"&  c #595858",
"*  c #794A4A",
"=  c #787351",
"-  c #747474",
";  c #8B0A0A",
":  c #9E0B0B",
">  c #940808",
",  c #881818",
"<  c #921111",
"1  c #9C1313",
"2  c #A60707",
"3  c #BC0606",
"4  c #B80808",
"5  c #B61919",
"6  c #A91C1C",
"7  c #9A2525",
"8  c #952D2D",
"9  c #962A2A",
"0  c #8A3B3B",
"q  c #9A3434",
"w  c #9D3D3D",
"e  c #832323",
"r  c #A13232",
"t  c #BB3333",
"y  c #C50606",
"u  c #CB0606",
"i  c #C90B0B",
"p  c #DD0606",
"a  c #D30A0A",
"s  c #D50808",
"d  c #C31515",
"f  c #C81818",
"g  c #D51414",
"h  c #E30606",
"j  c #EC0505",
"k  c #E30A0A",
"l  c #F60505",
"z  c #E71717",
"x  c #C23939",
"c  c #CD2828",
"v  c #8D7D0A",
"b  c #877709",
"n  c #887A16",
"m  c #827624",
"M  c #877C25",
"N  c #877D32",
"B  c #9E4F4F",
"V  c #8C4343",
"C  c #AA4848",
"Z  c #B84343",
"A  c #B74E4E",
"S  c #B75A5A",
"D  c #A75555",
"F  c #837E5D",
"G  c #887474",
"H  c #967676",
"J  c #896D6D",
"K  c #A96A6A",
"L  c #B57777",
"P  c #B27474",
"I  c #C55454",
"U  c #CA7272",
"Y  c #93830B",
"T  c #9C8A0A",
"R  c #988609",
"E  c #958617",
"W  c #A4920A",
"Q  c #AD9A0A",
"!  c #A9970D",
"~  c #B29E0A",
"^  c #A2931D",
"/  c #AA9A1B",
"(  c #A59416",
")  c #B09F1B",
"_  c #A18F09",
"`  c #B7A209",
"'  c #BBA50A",
"]  c #BFAA09",
"[  c #B8A415",
"{  c #8E8224",
"}  c #978923",
"|  c #958A35",
" . c #9E923D",
".. c #A69728",
"X. c #BFB03E",
"o. c #BAA92C",
"O. c #C3AD09",
"+. c #CCB50A",
"@. c #CFB809",
"#. c #C6B00B",
"$. c #D4BD09",
"%. c #C4AF11",
"&. c #C9B518",
"*. c #D2BD18",
"=. c #C1AE25",
"-. c #C7B639",
";. c #D0BF3A",
":. c #DBC30A",
">. c #D7C00E",
",. c #DCC511",
"<. c #E4CB0A",
"1. c #E8CE0A",
"2. c #ECD20A",
"3. c #F1D60A",
"4. c #F5D909",
"5. c #FBDF09",
"6. c #E5CE1F",
"7. c #ECD318",
"8. c #DCC729",
"9. c #D6C334",
"0. c #E1CB27",
"q. c #8E8757",
"w. c #A3984A",
"e. c #A89E55",
"r. c #ADA35D",
"t. c #B5AA57",
"y. c #BEB255",
"u. c #BBAE48",
"i. c #8C8867",
"p. c #87857A",
"a. c #938F73",
"s. c #98947A",
"d. c #9A9368",
"f. c #A39D6A",
"g. c #AEA667",
"h. c #B1A864",
"j. c #B7AF72",
"k. c #B5AE7A",
"l. c #BBB278",
"z. c #BFB465",
"x. c #C5B748",
"c. c #C8BB56",
"v. c #C9BD64",
"b. c #CBC177",
"n. c #8E8E8C",
"m. c #988985",
"M. c #979486",
"N. c #939393",
"B. c #999999",
"V. c #999090",
"C. c #A58787",
"Z. c #A79999",
"A. c #BC9696",
"S. c #AF9386",
"D. c #A8A58A",
"F. c #BCB583",
"G. c #ADAA92",
"H. c #B7B39B",
"J. c #B4AF89",
"K. c #A2A2A2",
"L. c #ACAAAA",
"P. c #AEA3A3",
"I. c #B5AAAA",
"U. c #BBB9A7",
"Y. c gray71",
"T. c #BBBBBB",
"R. c #C48787",
"E. c #C89797",
"W. c #C2BB86",
"Q. c #C7AAAA",
"!. c #C1BEA9",
"~. c #C5B5B5",
"^. c #DBB7B7",
"/. c #D4AAAA",
"(. c #CBC387",
"). c #C9C394",
"_. c #CEC79D",
"`. c #CECCBE",
"'. c #C6C4B3",
"]. c #D9D5B8",
"[. c #D0CAA2",
"{. c #C9C8C3",
"}. c #DCC3C3",
"|. c #D6CCCC",
" X c #D9CDCD",
".X c #D3C0C0",
"XX c #D5D4C9",
"oX c #DAD9CD",
"OX c #D8D6C5",
"+X c #D5D5D5",
"@X c #DEDDD3",
"#X c #DCDADA",
"$X c #E3D4D4",
"%X c #E4DCDC",
"&X c #E7DAD7",
"*X c #E2C8C8",
"=X c #ECEADE",
"-X c #E5E3E3",
";X c #ECE3E3",
":X c #ECEBE4",
">X c #EDEDEB",
",X c #F2ECEC",
"<X c #F0EBE3",
"1X c #F2F1E9",
"2X c #F5F4F3",
"3X c #F9F9F6",
"4X c #FCFCFC",
"5X c #F9F6F6",
/* pixels */
"                                                                                                                                ",
"                                                                                                                                ",
"                                                                                                                                ",
"                                . . X . X . .                                                                                   ",
"                                . l l l l l . . . . .                                                                           ",
"                          . l l l l l l l l l l l . . . . .                                                                     ",
"                        . . l l l l l l l l l l l l l . . . .                                                                   ",
"                      . . l l l l l l l l l l l l l l l l l . .                                                                 ",
"                    . . l l l l l l l l l l l l l l l l l l l . . .                                                             ",
"                    . l l l l l l l l l l l l l l l l l h l l l l . .                                                           ",
"                    . l l l l l l l l l l l l l l l u f 7 9 i p l l . . .                                                       ",
"                    . l l l l l l l l l l l l l l d 8 Q.{.I./.r y l l l . .                                                     ",
"                  . . l l l l l l l l l l l l l f * &X#X/.A.P.$Xt j l l l . . .                                                 ",
"                  . l l l l l l l l l l l l l g *  X{.P d s D I.G g l l l l l . .                                               ",
"                  . l l l l l l l l l l l l j , ~.+XH z j l y K C y i 2 j l l l . .                                             ",
"                  . l l l l l l l l l l l l j P ,XP.c l l l h u u 3 E.K 2 j l l l . .                                           ",
"                  . . l l l l l l l l l l l a C.5XD p l l l l j y R.$X}.1 h l l l l . .                                         ",
"                    . l l l l l l l l l l l a J  XK l l l l j y U $X&X8 y l l p l l l . .                                       ",
"                    . l l l l l l l l l l l j t $XZ.B a j l u U %X,X0 3 l l 7 < i l l 5..                                       ",
"                    . . l l l l l l l l l l l u w }.V.V j u I  X5X%X+ 3 l 7 C.}., h 5.5.. .                                     ",
"                      . l l l l l l l l l l l l y 6 K 5 y I *X;Xs.Z.;Xw e H 3XB.t 5.5.5.5.. .                                   ",
"                      . . l l l l l l l l l l s h h h 3 x }.;XP 2 8 C.5XV.4XK.Z 5.5...Q 5.5.. .                                 ",
"                        . l l l l l l l l l y r ; u l y L %XS.> j l V I.4XL.t.5.5.h.Y.r.` 5.5..                                 ",
"                        . l l l l l l l l u 8 ;X*Xe y h ; S ; h l d * ;XY.r.5.5.y.L.2Xq.%.4.5.. . .                             ",
"                        . . l l l l l l a , $X$X|.&Xq u h u h l g + oXT.f.5.5.x.K.4Xa...3.@.Q :.5.. .                           ",
"                          . . l l l l p ; }.$XA.0 P..Xc l l l k O {.{.d.7.5.;.B.2Xs.E 4.#.b.J.Y 2.5..                           ",
"                            . . l l k ; /.;XE.5 2 A.%XO p l l y  .+Xp.6.5.9.N.;XD.{ 4.+.b.@X:X..:.5.. .                         ",
"                              . . j : E.2X2XG r Z $X-XA j l 4 3.` m 8.5.8.n.-XI.M 4.@.v.oX<Xw.' 5.5.5.. .                       ",
"                                . : S.,XQ.E.%XI.-X2XE.: j g.f.R 1.<.5.6.s.+X'.$ 2.$.c.oX1Xr.Q 5.5.5.5.  .                       ",
"                                . - 5X~.Z > S L.Q.A.< <.t.Y.,XN :.4.5.R H.`.@ ,.$.x.XX=Xj.W 5.5.5.5.5.... .                     ",
"                                  & ~.A y l u f > O.<.x.L.4Xi./ :.] >.@.Y $ >.:.=.XX:Xl.T 4.5.5.5.5.r.T.- .                     ",
"                                  . o u l l l l 5.5.x.K.5Xa.^ <.Y (.Y @.:.:.2.o.].=X).Y 2.5.5.5.5.t.Y.1X= X .                   ",
"                                    . . l l 5.5.5.;.B.1XM.} 2.R _.-XJ.+.4.5.:.t.:XXX# <.5.5.5.5.y.L.4Xi.) 5..                   ",
"                                      . l 5.5.5.9.N.-XG.{ 5.( W.>X!.o.:.5.5.3.T j.2Xa...5.5.5.x.K.2Xa.^ 5.5..                   ",
"                                      . . 5.5.6.n.#XU.$ 4.! l.5X'.u.:.5.5.5.3.5.W r.4Xs.} 5.9.B.1XM.E 5.5.5..                   ",
"                                        . 5.3.q.+X'.# <.~ h.3X'.u.@.5.5.5.1.@.Q 4.` w.n.o.8.n.-XG.{ 5.5.5.5..                   ",
"                                        . . 1.Y g.@ ,.' e.4X`.y.@.5.5.5.2.] ).g.W 3.' [ 6.n.#XU.$ 3.5.5.5.5.. .                 ",
"                                          . . 2.` >.O.w.2XXXz.+.4.5.5.3.#.(.=XoX_ 1.5.4.E U.>X= *.5.5.5.5.5.5..                 ",
"                                            . . 5.2.( =X>XJ.#.3.5.5.5.#.b.@X=X| O.5.5.5.+.n ].`.= 8.4.5.5.5.5.. .               ",
"                                              . . 5.` e.3XD.| 4.5.5.@.b.oX1X .' 5.5.5.5.5.>.b _.{.% >.5.5.5.5.5..               ",
"                                                . 5.5.'  .:XH.| 2.>.c.oX1Xr.Q 5.5.5.5.5.5.5.<.Y g.u.:.5.5.5.5.5..               ",
"                                                . . 5.5.O.} OX% W x.oX=Xg.! 5.5.5.5.5.5.5.5.5.2.' :.5.5.5.5.5.5..               ",
"                                                  . . . 5.+.R ^ -.XX=Xl._ 5.5.5.5.5.5.5.5.5.5.5.5.5.5.5.5.5.5.5.. .             ",
"                                                    . . . 5.<.+.k.1XY.n 3.5.5.5.5.5.5.5.5.5.5.5.5.5.5.5.5.5.5.5.5..             ",
"                                                        . . . <.Y ).#XF o.5.5.5.5.5.5.5.5.5.5.5.5.5.5.5.5.5.5.5.. .             ",
"                                                            . . 1.Y l.:Xq./ 5.5.5.5.5.5.5.5.5.5.5.5.5.5.5.5.5.5..               ",
"                                                              . . . _ g.p.&.5.5.5.5.5.5.5.5.5.5.5.5.5.5.5.5.5.. .               ",
"                                                                  . . Q [ 5.5.5.5.5.5.5.5.5.5.5.5.5.5.5.5.5.. .                 ",
"                                                                    . . 5.5.5.5.5.5.5.5.5.5.5.5.5.5.5.5.5.5.5.. .               ",
"                                                                    . . . . 5.5.5.5.5.5.5.5.5.5.5.5.5.5.5.5.. .                 ",
"                                                                        . . . . . . . 5.5.5.5.5.5.5.. . . . .                   ",
"                                                                                  . . . . . . . . . .                           ",
"                                                                                              . .                               ",
"                                                                                                                                ",
"                                                                                                                                ",
"                                                                                                                                ",
"                                                                                                                                ",
"                                                                                                                                ",
"                                                                                                                                ",
"                                                                                                                                ",
"                                                                                                                                ",
"                                                                                                                                ",
"                                                                                                                                ",
"                                                                                                                                "
};
