/* XPM */
static char *_d5363fb583c4328a81606aee5108107aH668No7V2P20Yhf[] = {
/* columns rows colors chars-per-pixel */
"128 128 69 1 ",
"  c None",
". c black",
"X c #010101",
"o c #060606",
"O c #080000",
"+ c gray4",
"@ c #0E0E0E",
"# c gray9",
"$ c #181818",
"% c gray11",
"& c #1D1D1D",
"* c gray12",
"= c #202020",
"- c gray13",
"; c gray14",
": c #282828",
"> c gray16",
", c #313131",
"< c gray20",
"1 c gray22",
"2 c #3A3A3A",
"3 c #3F3F3F",
"4 c #460808",
"5 c #770D0D",
"6 c #414141",
"7 c #4B4B4B",
"8 c DimGray",
"9 c #830E0E",
"0 c #880E0E",
"q c #890E0E",
"w c #8A0E0E",
"e c #8D0E0E",
"r c #8F0F0F",
"t c #980F0F",
"y c #9C0F0F",
"u c #8E1212",
"i c #9A1111",
"p c #9F1010",
"a c #A51111",
"s c #A61111",
"d c #A41212",
"f c #A71313",
"g c #AA1313",
"h c #AC1212",
"j c #AE1212",
"k c #B01313",
"l c #B61313",
"z c #B41414",
"x c #B81111",
"c c #BA1313",
"v c #BB1313",
"b c #BD1313",
"n c #BE1313",
"m c #B91414",
"M c #BB1414",
"N c #BC1414",
"B c #BD1414",
"V c #BD1515",
"C c #BE1414",
"Z c #BE1515",
"A c #BE1616",
"S c #B93B3B",
"D c #C14141",
"F c #CF5353",
"G c #818181",
"H c gray55",
"J c gray61",
"K c #EEEEEE",
"L c white",
/* pixels */
"                                                                                                                                ",
"                                                                                                                                ",
"                                                                                                                                ",
"                                                                                                                                ",
"                                                                                                                                ",
"                                                                                                                                ",
"                                                                                                                                ",
"                                                                                                                                ",
"                                                                                                                                ",
"                                                                                                                                ",
"                                                                                                                                ",
"                                                                                                                                ",
"                                                                                                                                ",
"                                                                                                                                ",
"                                                                                                                                ",
"                                                                                                                                ",
"                                                                                                                                ",
"                                                                                                                                ",
"                                                                                                                                ",
"                                                                                                                                ",
"                                                                                                                                ",
"                                                          LL                                                                    ",
"                                              LLLLLLLLLLLLLLLLLLLL                                                              ",
"                                              LLLLLLLLLLLLLLLLLLLLLL                                                            ",
"                                               L   LL             LLL                                                           ",
"                                              LL      L            LLL                                                          ",
"                                             LLL      LL     &;LL   LLL                                                         ",
"                                            LLL  dd4DF      3OrS61   LLL                                                        ",
"                                            LL XX0ZAZz1@,L &tvZb0&L  LLL                                                        ",
"                                            LL @XXlbbvig9  -abZZu<L  LLL                                                        ",
"                                            LL   7dZbmkZu LHOvZvXo    LLL                                                       ",
"                                            LL   &XgZZZ5JLLLX0myX&    LLL                                                       ",
"                                            LL   #+XyjrXLLLL-XXXXK  LL LL                                                       ",
"                                            LL       G&>L     8#>L  L  LL                                                       ",
"                                            LL  L    LL     LL  L     LLL                                                       ",
"                                            LL   LL           LLLL   LLL                                                        ",
"                                            LL   LLLL LLL    LL LLL  LL                                                         ",
"                                            LLL    LLLLLLLLLLL LLLL  L                                                          ",
"                                             LLL L  LLLLLLLLLLLLL   LL                                                          ",
"                                              LLLLL LLLLLLLLLLLL LLLLL                                                          ",
"                                               LLLLLLLLLLLLLLLLLLLLL                                                            ",
"                                                LLLLLL    LLLLLLLLLLL                                                           ",
"                                                  LLLLLLLLLLLLLLL  LLL                                                          ",
"                                                  L   LLLLLL        LLL                                                         ",
"                                                 LL       LL         LLL                                                        ",
"                                                 LL       LL          LLLL                                                      ",
"                                                 L        LL          LLLL                                                      ",
"                                                LL        LL           LLL                                                      ",
"                                                LL        LL            LLL                                                     ",
"                                               LLL        LL             LL                                                     ",
"                                               LL         LL             LL                                                     ",
"                                              LLL         LL              LL                                                    ",
"                                             LLLL         LL              LL                                                    ",
"                                             LLL          LL              LL                                                    ",
"                                             LLL          LL               LL                                                   ",
"                                             LLL          LL              LLL                                                   ",
"                                             LLL         LLL             LLLL                                                   ",
"                                             LL          LLL             LLLL                                                   ",
"                                            LLL          LLL             LLLL                                                   ",
"                                            LLL          LLL             LLL                                                    ",
"                                            LLL          LLL             LLL                                                    ",
"                                            LLL          LLL             LLL                                                    ",
"                                            LLL          LLL             LLL                                                    ",
"                                            LLL          LL              LLL                                                    ",
"                                            LL           LL              LLL                                                    ",
"                                            LL           LL              LLL                                                    ",
"                                             LL          LL              LLL                                                    ",
"                                             LL         LLL              LLL                                                    ",
"                                             LL         LL               LL                                                     ",
"                                             LL         LL               LL                                                     ",
"                                             LL         LL               LL                                                     ",
"                                             LL         LL              LL                                                      ",
"                                             LL         LL              LL                                                      ",
"                                             LL         LL              LL                                                      ",
"                                                        LL              L                                                       ",
"                                                        LL             LL                                                       ",
"                                                        LL             LL                                                       ",
"                                                        L              L                                                        ",
"                                                       LL             LL                                                        ",
"                                                       LL             LL                                                        ",
"                                                       LL                                                                       ",
"                                                      LLL                                                                       ",
"                                                     LLLL                                                                       ",
"                                                   LLL LL                                                                       ",
"                                                  LLL   LLLL                                                                    ",
"                                                LLL       LLLLLLLL                                                              ",
"                                               LLL           LLLLLLL                                                            ",
"                                             LLL                 LLLLL                                                          ",
"                                          LLLLL                    LLLLLLL                                                      ",
"                                         LLL                          LLLLLL                                                    ",
"                                        LLL                              LLLLL                                                  ",
"                                         L                                  LLLLL                                               ",
"                                                                              LLLLLL                                            ",
"                                                                                  LLL                                           ",
"                                                                                    LLL                                         ",
"                                                                                     LL                                         ",
"                                                                                                                                ",
"                                                                                                                                ",
"                                                                                                                                ",
"                                                                                                                                ",
"                                                                                                                                ",
"                                                                                                                                ",
"                                                                                                                                ",
"                                                                                                                                ",
"                                                                                                                                ",
"                                                                                                                                ",
"                                                                                                                                ",
"                                                                                                                                ",
"                                                                                                                                ",
"                                                                                                                                ",
"                                                                                                                                ",
"                                                                                                                                ",
"                                                                                                                                ",
"                                                                                                                                ",
"                                                                                                                                ",
"                                                                                                                                ",
"                                                                                                                                ",
"                                                                                                                                ",
"                                                                                                                                ",
"                                                                                                                                ",
"                                                                                                                                ",
"                                                                                                                                ",
"                                                                                                                                ",
"                                                                                                                                ",
"                                                                                                                                ",
"                                                                                                                                ",
"                                                                                                                                ",
"                                                                                                                                "
};
