/* XPM */
static char *exit[] = {
/* columns rows colors chars-per-pixel */
"64 64 198 2 ",
"   c #46353C",
".  c #514247",
"X  c #71656A",
"o  c #746A6E",
"O  c #776C70",
"+  c #B7762F",
"@  c #D5693A",
"#  c #F3783A",
"$  c #F1683E",
"%  c #99334C",
"&  c #A92847",
"*  c #B32446",
"=  c #BD2349",
"-  c #B92A4D",
";  c #B72849",
":  c #BB2E50",
">  c #B53D5A",
",  c #B93354",
"<  c #A53E58",
"1  c #993677",
"2  c #C3244A",
"3  c #CD234C",
"4  c #C32B4F",
"5  c #D4224D",
"6  c #DB214E",
"7  c #C12D51",
"8  c #C13356",
"9  c #D53D45",
"0  c #E1214F",
"q  c #EB284F",
"w  c #E62150",
"e  c #EC2051",
"r  c #ED344C",
"t  c #8E4153",
"y  c #B05E40",
"u  c #B6425E",
"i  c #BB4759",
"p  c #9D5862",
"a  c #B44C65",
"s  c #BC4E61",
"d  c #AD5368",
"f  c #AC5D71",
"g  c #B45A71",
"h  c #916D73",
"j  c #B56475",
"k  c #C6445C",
"l  c #D3475F",
"z  c #EE4348",
"x  c #EE5743",
"c  c #F15E41",
"v  c #DF4963",
"b  c #D34860",
"n  c #C24960",
"m  c #E64B65",
"M  c #F44E6A",
"N  c #F4546F",
"B  c #3BB84D",
"V  c #799B7F",
"C  c #59A562",
"Z  c #79A87E",
"A  c #3BEB57",
"S  c #3BEB58",
"D  c #3BE656",
"F  c #36E475",
"G  c #38E769",
"H  c #3BD052",
"J  c #6DD947",
"K  c #4BE953",
"L  c #56E850",
"P  c #70E448",
"I  c #BA8E1F",
"U  c #9D843A",
"Y  c #B39334",
"T  c #CB9B1B",
"R  c #D7A41A",
"E  c #FABF15",
"W  c #E3AE19",
"Q  c #C09F30",
"!  c #F48D35",
"~  c #CAA52A",
"^  c #D3AB2A",
"/  c #E3BB2C",
"(  c #F3B72C",
")  c #B8DC35",
"_  c #ACDE37",
"`  c #F9C119",
"'  c #D9D92B",
"]  c #CCDA2E",
"[  c #FCCD24",
"{  c #F7C724",
"}  c #E8D727",
"|  c #FED522",
" . c #F5D227",
".. c #EAC62B",
"X. c #B29A5A",
"o. c #B1924E",
"O. c #BDA458",
"+. c #A8956D",
"@. c #BBA86A",
"#. c #C7AB56",
"$. c #CEAF48",
"%. c #C9AB66",
"&. c #87E241",
"*. c #7D2AAD",
"=. c #7B4BFC",
"-. c #993585",
";. c #8033BC",
":. c #9C7A83",
">. c #A47A85",
",. c #B27383",
"<. c #BA7787",
"1. c #B56F80",
"2. c #8D51BA",
"3. c #936AB6",
"4. c #F57E92",
"5. c #F4768B",
"6. c #8432C8",
"7. c #8D26E8",
"8. c #9526FD",
"9. c #9227F8",
"0. c #8B34FC",
"q. c #8045FC",
"w. c #7CAA80",
"e. c #31DC99",
"r. c #2FD6A8",
"t. c #2DD6B5",
"y. c #329DC1",
"u. c #28ADDB",
"i. c #36ACFC",
"p. c #2BBBFC",
"a. c #4C8DFC",
"s. c #4C89F5",
"d. c #2BD2C5",
"f. c #28CEDA",
"g. c #26CBE8",
"h. c #23C6FE",
"j. c #9F8189",
"k. c #BB8492",
"l. c #B88B97",
"z. c #A79A9B",
"x. c #BA929C",
"c. c #A88E8F",
"v. c #87AD8A",
"b. c #BFB08B",
"n. c #BC9BA3",
"m. c #A685BB",
"M. c #8FAEBC",
"N. c #BEA7AD",
"B. c #B7A7BE",
"V. c #B6B1B3",
"C. c #BBB5B6",
"Z. c #BEBABB",
"A. c #BCB7B9",
"S. c #AFA9AB",
"D. c #F58396",
"F. c #C7B99C",
"G. c #CAB589",
"H. c #C097A2",
"J. c #F79CAC",
"K. c #C1A4AB",
"L. c #C2ABB1",
"P. c #C5BDB5",
"I. c #C2BCBE",
"U. c #C6B4B8",
"Y. c #C8BCA8",
"T. c #F7A6B4",
"R. c #B5C0B4",
"E. c #D2C9BC",
"W. c #C9C0B4",
"Q. c #BEB2C2",
"!. c #C3BDC1",
"~. c #CBBEC2",
"^. c #F5B6C2",
"/. c #CAC3C6",
"(. c #CFCACC",
"). c #C9C4C6",
"_. c #D2CCCD",
"`. c #D3CEC7",
"'. c #D2CED0",
"]. c #D5D2D3",
"[. c #D9D6D5",
"{. c #D9D7D8",
"}. c #DDDADB",
"|. c #E1DEDF",
" X c #F8D0D9",
".X c #E4E1DC",
"XX c #E1DFE0",
"oX c #F9DFE4",
"OX c #E4E2E3",
"+X c #E8E6E7",
"@X c #EDEBEC",
"#X c #E9E7E8",
"$X c #F0EEEF",
"%X c #F4EFF0",
"&X c #F4F3F4",
"*X c #F9F5F6",
"=X c #F9F7F8",
"-X c #FFFFFF",
/* pixels */
"-X-X-X-X-X-X-X-X-X-X-X-X-X-X-X-X-X-X-X-X-X-X-X-X-X-X-X-X-X-X-X-X-X-X-X-X-X-X-X-X-X-X-X-X-X-X-X-X-X-X-X-X-X-X-X-X-X-X-X-X-X-X-X-X",
"-X-X-X-X-X-X-X-X-X-X-X-X-X-X-X-X-X-X-X-X-X-X-X-X-X-X-X-X-X-X-X-X-X-X-X-X-X-X-X-X-X-X-X-X-X-X-X-X-X-X-X-X-X-X-X-X-X-X-X-X-X-X-X-X",
"-X-X-X-X-X-X-X-X-X-X-X-X-X-X-X-X-X-X-X-X-X-X-X-X-X-X-X-X-X-X-X-X-X-X-X-X-X-X-X-X-X-X-X-X-X-X-X-X-X-X-X-X-X-X-X-X-X-X-X-X-X-X-X-X",
"-X-X-X-X-X-X-X-X-X-X-X-X-X-X-X-X-X-X-X-X-X-X-X-X-X-X-X-X-X-X-X-X-X-X-X-X-X-X-X-X-X-X-X-X-X-X-X-X-X-X-X-X-X-X-X-X-X-X-X-X-X-X-X-X",
"-X-X-X-X-X-X-X-X-X-X-X-X-X-X-X-X-X-X-X-X-X-X-X-X-X-X-X-X-X-X-X-X-X-X-X-X-X-X-X-X-X-X-X-X-X-X-X-X-X-X-X-X-X-X-X-X-X-X-X-X-X-X-X-X",
"-X-X-X-X-X-X-X-X-X-X-X-X-X-X-X-X-X-X-X-X-X-X-X-X-X-X-X-X-X-X-X-X-X-X-X-X-X-X-X-X-X-X-X-X-X-X-X-X-X-X-X-X-X-X-X-X-X-X-X-X-X-X-X-X",
"-X-X-X-X-X-X-X-X-X-X-X-X-X-X-X-X-X-X-X-X-X-X-X-X-X-X-X-X-X-X-X-X-X-X-X-X-X-X-X-X-X-X-X-X-X-X-X-X-X-X-X-X-X-X-X-X-X-X-X-X-X-X-X-X",
"-X-X-X-X-X-X-X-X-X-X-X-X-X-X-X-X-X-X-X-X-X-X-X-X-X-X-X-X-X-X-X-X-X-X-X-X-X-X-X-X-X-X-X-X-X-X-X-X-X-X-X-X-X-X-X-X-X-X-X-X-X-X-X-X",
"-X-X-X-X-X-X-X-X-X-X-X-X-X-X-X-X-X-X-X-X-X-X+XF.-X-X-X-X-X-X-X-X-X-X-X-X-X-X-X-X-X-X-X-X-X-X-X-X-X-X-X-X-X-X-X-X-X-X-X-X-X-X-X-X",
"-X-X-X-X-X-X-X-X-X-X-X-X-X-X-X-X-X-X-X-X-X-X[.^ &X-X-X-X-X-X-X-X-X-X-X-X-X-X-X-X-X-X-X-X-X-X-X-X-X-X-X-X-X-X-X-X-X-X-X-X-X-X-X-X",
"-X-X-X-X-X-X-X-X-X-X-X-X-X-X-X-X-X-X-X-X-X-X[.Y P.-X-X-X-X-X-X-X-X-X-X-X-X-X-X-X-X-X-X-X-X-X-X-X-X-X-X-X-X-X-X-X-X-X-X-X-X-X-X-X",
"-X-X-X-X-X-X-X-X-X-X-X-X-X-X-X-X-X-X-X-X-X-X[.~ $.-X-X-X-X-X-X-X-X-X-X-X-X-X-X-X-X-X-X-X-X-X-X-X-X-X-X-X-X-X-X-X-X-X-X-X-X-X-X-X",
"-X-X-X-X-X-X-X-X-X-X-X-X-X-X-X-X-X-X-X-X-X-X`...U *X-X-X-X-X-X-X-X-X-X-X-X-X-X-X-X-X-X-X-X-X-X-X-X-X-X-X-X-X-X-X-X-X-X-X-X-X-X-X",
"-X-X-X-X-X-X-X-X-X-X-X-X-X-X-X-X-X-X-X-X-X-X@XY W E.-X-X-X-X-X-X-X-X-X-X-X-X-X-X-X-X-X-X-X-X-X-X-X-X-X-X-X-X-X-X-X-X-X-X-X-X-X-X",
"-X-X-X-X-X-X-X-X-X-X-X-X-X-X-X-X-X-X-X-X-X-X=X$.R G.-X-X-X-X-X-X-X-X-X-X-X-X-X-X-X-X-X-X-X-X-X-X-X-X-X-X-X-X-X-X-X-X-X-X-X-X-X-X",
"-X-X-X-X-X-X-X-X-X-X-X-X-X-X-X-X-X-X-X-X-X-X-XU R #.-X-X-X-X-X-X-X-X-X-X-X-X-X-X-X-X-X-X-X-X-X-X-X-X-X-X-X-X-X-X-X-X-X-X-X-X-X-X",
"-X-X-X-X-X-X-X-X-X-X-X-X-X-X-X-X-X-X-X-X-X-X-X#.{ o.=X-X-X-X-X-X-X-X-X-X-X-X-X-X-X-X-X-X-X-X-X-X-X-X-X-X-X-X-X-X-X-X-X-X-X-X-X-X",
"-X-X-X-X-X-X-X-X-X-X-X-X-X-X-X-X-X-X-X-X-X-X-XY ~ T $X-X-X-X-X-X-X-X-X-X-X-X-X-X-X-X-X-X-X-X-X-X-X-X-X-X-X-X-X-X-X-X-X-X-X-X-X-X",
"-X-X-X-X-X-X-X-X-X-X-X-X-X-X-X-X-X-X-X-X-X-X-XO. .R OX-X-X-X-X-X-X-X-X-X-X-X-X-X-X-X-X-X-X-X-X-X-X-X-X-X-X-X-X-X-X-X-X-X-X-X-X-X",
"-X-X-X-X-X-X-X-X-X-X-X-X-X-X-X-X-X-X-X-X-X-XV.X.~ T W.-X-X-X-X-X-X-X-X-X-X-X-X-X-X-X-X-X-X-X-X-X-X-X-X-X-X-X-X-X-X-X-X-X-X-X-X-X",
"-X-X-X-X-X-X-X-X-X-X-X-X-X-X-X-X-X-X+X-X-X-XQ.Y./ E G.-X-X-X-X-X-X-X-X-X-X-X-X-X-X-X-X-X-X-X-X-X-X-X-X-X-X-X-X-X-X-X-X-X-X-X-X-X",
"-X-X-X-X-X-X-X-X-X-X-X-X-X-X-X-X-XXXA.C.-X=XZ.F./ T X.-X-X-X-X-X-X-X-X-X-X-X-X-X-X-X-X-X-X-X-X-X-X-X-X-X-X-X-X-X-X-X-X-X-X-X-X-X",
"-X-X-X-X-X-X-X-X-X-X-X-X-X-X-X-X-X(.$X@XZ.&X).z.~ E ~ =X-X-X-X-X-X-X-X-X-X-X-X-X-X-X-X-X-X-X-X-X-X-X-X-X-X-X-X-X-X-X-X-X-X-X-X-X",
"-X-X-X-X-X-X-X-X-X-X-X-X-X-X-X-X-XI.XX-X[.).).z./ R I #X-X-X-X-X-X-X-X-X-X-X-X-X-X-X-X-X-X-X-X-X-X-X-X-X-X-X-X-X-X-X-X-X-X-X-X-X",
"-X-X-X-X-X-X-X-X-X-X-X-X-X-X-X-X-XW.'.-X-Xz.d h T T W `.-X-X-X-X-X-X-X-X-X-X-X-X-X-X-X-X-X-X-X-X-X-X-X-X-X-X-X-X-X-X-X-X-X-X-X-X",
"-X-X-X-X-X-X-X-X-X-X-X-X-X-X-X-X}.:.(.-X=XQ.3 6 + ` W E.-X-X-X-X-X-X-X-X-X-X-X-X-X-X-X-X-X-X-X-X-X-X-X-X-X-X-X-X-X-X-X-X-X-X-X-X",
"-X-X-X-X-X-X-X-X-X-X-X-X-X-X-X_.: , '.&X-X(., e * T T +.).=X-X-X-X-X-X-X-X-X-X-X-X-X-X-X-X-X-X-X-X-X-X-X-X-X-X-X-X-X-X-X-X-X-X-X",
"-X-X-X-X-X-X-X-X-X-X-X-X-X-X*X> e 6 !.).-X(.: e 2 %.%..X&XQ.A.XX-X-X-X-X-X-X-X-X-X-X-X-X-X-X-X-X-X-X-X-X-X-X-X-X-X-X-X-X-X-X-X-X",
"-X-X-X-X-X-X-X-X-X-X-X-X-X-X(.6 e e a {.].(.6 e a -X=X-X-X-X-X].Z.I.I.N.K.U.].=X-X-X-X-X-X-X-X-X-X-X-X-X-X-X-X-X-X-X-X-X-X-X-X-X",
"-X-X-X-X-X-X-X-X-X-X-X-X-X-X/.0 e e e f @XL.e 6 /.}.X X }.-X-X-X-X-XoXN M M v s U.-X-X-X-X-X-X-X-X-X-X-X-X-X-X-X-X-X-X-X-X-X-X-X",
"-X-X-X-X-X-X-X-X-X-X-X-X-X_.> = e e e 2 $X}.3 a -Xh V.  o -X-X-X-X-XT.M M M M M s =X-X-X-X-X-X-X-X-X-X-X-X-X-X-X-X-X-X-X-X-X-X-X",
"-X-X-X-X-X-X-X-X-X-X-X-X&X, e * e e e , -X-X~.>.=XX . o o -X-X-X-X-XD.M M M m v l OX-X-X-X-X-X-X-X-X-X-X-X-X-X-X-X-X-X-X-X-X-X-X",
"-X-X-X-X-X-X-X-X-X-X-X-XL.w e e e e e 4 OX-X-X-X-X}.X X |.-X-X-X-X%XN M m m m i m ~.-X-X-X-X-X-X-X-X-X-X-X-X-X-X-X-X-X-X-X-X-X-X",
"-X-X-X-X-X-X-X-X-X-X-X&Xd e e e e 2 e e d =X-X-X-X-X-X-X-X-X-X-X*X4.M M m l l m M <.-X-X-X-X-X-X-X-X-X-X-X-X-X-X-X-X-X-X-X-X-X-X",
"-X-X-X-X-X-X-X-X-X-X-X,.e e e e e = 6 e 5 {.-X-X-X-X-X-X-X-X-X*X5.M l k l M M M b L.-X-X-X-X-X-X-X-X-X-X-X-X-X-X-X-X-X-X-X-X-X-X",
"-X-X-X-X-X-X-X-X-X-X}.5 e e e e e e % 7 4 @X-X-X-X-X-X-X-X-X-X4.M y @ x 9 ; - & h OX-X-X-X-X-X-X-X-X-X-X-X-X-X-X-X-X-X-X-X-X-X-X",
"-X-X-X-X-X-X-X-X-X-X:.e e e e e e e 5 z.>.-X-X-X-X-X-X-X-X-X XM i J &._ ] { ! $ e 4 <.#X-X-X-X-X-X-X-X-X-X-X-X-X-X-X-X-X-X-X-X-X",
"-X-X-X-X-X-X-X-X-Xl.; e e e e 0 e e w I.=X-X-X-X-X-X-X-X-X-XT.M p r.e.F A K P ] { # e : K.-X-X-X-X-X-X-X-X-X-X-X-X-X-X-X-X-X-X-X",
"-X-X-X-X-X-X-X-X-X, e e e e e * e e e k.-X-X-X-X-X-X-X-X-X-XJ.M n s.a.h.g.t.F A &.} ( z 6 j &X-X-X-X-X-X-X-X-X-X-X-X-X-X-X-X-X-X",
"-X-X-X-X-X-X-X-X@X2 e e e e e w * & 6 g -X-X-X-X-X-X-X-X-X-X^.M M 1 7.8.=.a.h.r.S L }  .c q a +X-X-X-X-X-X-X-X-X-X-X-X-X-X-X-X-X",
"-X-X-X-X-X-X-X-XU.* e e e e e e e k.U.>.-X-X@X-X-X-X-X-X-X].V.n.j l k -.*.7.q.i.d.D K ' | $ w > XX-X-X-X-X-X-X-X-X-X-X-X-X-X-X-X",
"-X-X-X-X-X-X-X-Xa * e e e e e e e ,.-X}.-X-X&XZ.Z.I.I.V.S.OX-X-X-X|.K.x.~.!.6.=.h.r.S L  .| $ e > OX-X-X-X-X-X-X-X-X-X-X-X-X-X-X",
"-X-X-X-X-X-X-X&X= 3 5 e e e e e e 7 OX-X-X-X-X-X-X-X-X@X(.-X-X-X-X-X-X-X-X-X!.7.a.h.F S P | | z e u #X-X-X-X-X-X-X-X-X-X-X-X-X-X",
"-X-X-X-X-X-X-X*X- e e e 6 6 e e e e j -X-X-X-X-X-X-X-X-X!.-X-X-X-X-X-X-X-X-X=X;.=.h.d.S A ) | ( q e f -X-X-X-X-X-X-X-X-X-X-X-X-X",
"-X-X-X-X-X-X-X-Xa e e e e * e e e e 6 ~.-X-X-X-X-X-X-X-XZ.-X-X-X-X-X-X-X-X-X-X3.8.p.h.G S L | | # e 0 K.-X-X-X-X-X-X-X-X-X-X-X-X",
"-X-X-X-X-X-X-X-Xk.e e e e 2 4 e e e e n.-X-X-X-X-X-X-X-XI.-X-X-X-X-X-X-X-X-X-X3.8.i.h.e.S S _ | | r e , @X-X-X-X-X-X-X-X-X-X-X-X",
"-X-X-X-X-X-X-X-XN.e 5 e e e % 5 3 e e N.-X-X-X-X-X-X-X-X).=X-X-X-X-X-X-X-X-X=X;.8.i.h.d.S S P | [ ! e e k.-X-X-X-X-X-X-X-X-X-X-X",
"-X-X-X-X-X-XXX:.8 e * e e e n.< :.5 6 _.-X-X-X-X-X-X-X-XOX].-X-X-X-X-X-X-X-X!.9.8.p.h.f.S S S } | { q e : @X-X-X-X-X-X-X-X-X-X-X",
"-X-X-X-X-X-X-X~.a > h = e 5 XX].-X> - =X-X-X-X-X-X-X-X-X-X!.-X-X-X-X-X-X-X-X3.8.=.h.h.g.A S A _ | | x e e x.-X-X-X-X-X-X-X-X-X-X",
"-X-X-X-X-X-X-X-X-X-X-X, 6 j.-X-X-X1.u -X-X-X-X-X-X-X-X-X@X).-X-X-X-X-X-X-X$X6.8.s.h.h.g.A S A &.| | ! e e , &X-X-X-X-X-X-X-X-X-X",
"-X-X-X-X-X-X-X-X-X-XOX% L._.A.'.-X#X>.}.-X-X-X-X-X-X-XOXV.-X-X-X-X-X%X`.B.2.8.0.p.h.h.f.A S A P | | ( e e w x.=X-X-X-X-X-X-X-X-X",
"-X-X-X-X-X-X-X-X-X-X*X*X-X-X-X+XZ.Z.Z.].OX@X$XOX_.Z.Z._.-X-X-X-X-X[.;.7.7.9.9.s.h.h.h.d.A S A K | | ( e e e 6 - a |.-X-X-X-X-X-X",
"-X-X-X-X-X-X-X-X-X-X-X-X-X-X-X-X-X-X-X#X{.'._.{.@X-X-X-X-X-X-X-X-X@Xm.m.].B.3.u.y.u.h.r.A A A D { | / 5 w w u <.k.+X-X-X-X-X-X-X",
"-X-X-X-X-X-X-X-X-X-X-X-X-X-X-X-X-X-X-X-X-X-X-X-X-X-X-X-X-X-X-X-X-X-X-X-X`.b.R.R.=X].M.w.D D H C O.Y '.N.k.n.$X-X-X-X-X-X-X-X-X-X",
"-X-X-X-X-X-X-X-X-X-X-X-X-X-X-X-X-X-X-X-X-X-X-X-X-X-X-X-X-X-X-X-X-X}.@.#.~ ` { +.-X-XC.Z B v.}.#XU @.=X-X-X-X-X-X-X-X-X-X-X-X-X-X",
"-X-X-X-X-X-X-X-X-X-X-X-X-X-X-X-X-X-X-X-X-X-X-X-X-X-X-X-X-X-X-X-X-X.X@.b.[.W.R.*X-X&Xw.v.OX-X-X-X-X-X-X-X-X-X-X-X-X-X-X-X-X-X-X-X",
"-X-X-X-X-X-X-X-X-X-X-X-X-X-X-X-X-X-X-X-X-X-X-X-X-X-X-X-X-X-X-X-X-X-X-X-X-X-X-X-X-X-X-X-X-X-X-X-X-X-X-X-X-X-X-X-X-X-X-X-X-X-X-X-X",
"-X-X-X-X-X-X-X-X-X-X-X-X-X-X-X-X-X-X-X-X-X-X-X-X-X-X-X-X-X-X-X-X-X-X-X-X-X-X-X-X-X-X-X-X-X-X-X-X-X-X-X-X-X-X-X-X-X-X-X-X-X-X-X-X",
"-X-X-X-X-X-X-X-X-X-X-X-X-X-X-X-X-X-X-X-X-X-X-X-X-X-X-X-X-X-X-X-X-X-X-X-X-X-X-X-X-X-X-X-X-X-X-X-X-X-X-X-X-X-X-X-X-X-X-X-X-X-X-X-X",
"-X-X-X-X-X-X-X-X-X-X-X-X-X-X-X-X-X-X-X-X-X-X-X-X-X-X-X-X-X-X-X-X-X-X-X-X-X-X-X-X-X-X-X-X-X-X-X-X-X-X-X-X-X-X-X-X-X-X-X-X-X-X-X-X",
"-X-X-X-X-X-X-X-X-X-X-X-X-X-X-X-X-X-X-X-X-X-X-X-X-X-X-X-X-X-X-X-X-X-X-X-X-X-X-X-X-X-X-X-X-X-X-X-X-X-X-X-X-X-X-X-X-X-X-X-X-X-X-X-X",
"-X-X-X-X-X-X-X-X-X-X-X-X-X-X-X-X-X-X-X-X-X-X-X-X-X-X-X-X-X-X-X-X-X-X-X-X-X-X-X-X-X-X-X-X-X-X-X-X-X-X-X-X-X-X-X-X-X-X-X-X-X-X-X-X",
"-X-X-X-X-X-X-X-X-X-X-X-X-X-X-X-X-X-X-X-X-X-X-X-X-X-X-X-X-X-X-X-X-X-X-X-X-X-X-X-X-X-X-X-X-X-X-X-X-X-X-X-X-X-X-X-X-X-X-X-X-X-X-X-X",
"-X-X-X-X-X-X-X-X-X-X-X-X-X-X-X-X-X-X-X-X-X-X-X-X-X-X-X-X-X-X-X-X-X-X-X-X-X-X-X-X-X-X-X-X-X-X-X-X-X-X-X-X-X-X-X-X-X-X-X-X-X-X-X-X"
};
