/* XPM */
static char *floor[] = {
/* columns rows colors chars-per-pixel */
"64 64 35 1 ",
"  c #2A2E2E",
". c #2F3234",
"X c #323636",
"o c #343837",
"O c #333738",
"+ c #363A3A",
"@ c #3A3D3C",
"# c #3D403E",
"$ c #40433F",
"% c #3B3F40",
"& c #3E4241",
"* c #434544",
"= c #464946",
"- c #494B47",
"; c #474A48",
": c #4A4D4A",
"> c #4E514D",
", c #51534E",
"< c #4B4F50",
"1 c #4F5250",
"2 c #535552",
"3 c #565955",
"4 c #595C56",
"5 c #565958",
"6 c #5A5D5A",
"7 c #5B6057",
"8 c #5E615C",
"9 c #61635E",
"0 c #5E6260",
"q c #626561",
"w c #666964",
"e c #686B65",
"r c #666A69",
"t c #6A6D69",
"y c #71746E",
/* pixels */
"*=--$$$$$$,,,$,$--$@----;:**:><-& O-<2:<:>>>>:<=+<<;:::::***<<<.",
"**-$$$$$7$,7$7,$---@>-:::::><<::<+&<>22>222>>222-552222552222252",
"--$$$$$4$$7$,,,$---o>--:;:::::<<2**;>>>>,22,>,22*552252552222262",
"-$--7$77777,77,7,--o>-::<:;:<<255**;2>2>,2::>>2>*25522522>22222<",
"X$>>>$7$,,7,,7,$>,-o1::<>1::>1555;*::2:<:>>>:>2>#5522222<265222:",
"o->,$3$,,,777,,72,-@1<:<1>>:;5555*&<::::-:::>>>2#222225<2506222:",
"o-,,444,,77,447432-+<2552<1:><552*&*:::-:--:>>>2#5>>22225605222:",
"#$,,$7,7,,,,,,,433-+<5552>1><22<5*&:2552::--:>>5$5>>:22<255222:;",
"$$$,,,,,,,,7,7,,33-+$35552222121<&&*5255122<::-;@2>2222>225252>*",
"$,$,7,7777,,,,,734-o@*:655222>>>5&<;22222<2<>>>5*552222222522>2;",
"$,,$-,,,,,7,,,7799-O$:=12222>>115&*;>2>222<22:22#222225552522>2;",
"@$$$$,,7,,,,,,7,:##+$*=>555222225&*;:>:><22<:<2>@:>522556q55522;",
"$---$$$-,,,,,-$$@>>#*:::5552,,125%;;::>><2>2:>:>@*:255556q52522;",
"$-,--$$,,-$,-ooo$-:#:::122>>,,116%;;;;::<2::::>>+$::22<56552255;",
"$,-$---,-,--$o $-22@62<:2>>>2,>6q%*;::::;;::::>>@:::22565665556;",
"$-,,,,----,$$$o$:2*+%%22<<>>22--2*&;::::;:<:::22%<::;<5600q626q;",
" ,,,,--$---@$$o$$@o--o24-$$**#@o2-X@&$&&***$OO$@+:;*$-->-**-***o",
" $#$$@$$o@@$$$$$oo$$##$$$@#$*$#$*@52<*:-*:-<-*:&%qqq9444999eeee*",
"-,,,4443>,2,,232$$,42,2,,3334,3,5-2--**--*-***--$qq94494449wq99:",
"$4,4,,3,3,2,,,,2$$4,3442,44443433*1*-----*-****:*66694944499q99-",
"$,,,,,,,3,,,>,,2$$,42323233443333$:-:-**-***;*:-*53699444999999-",
"@,,,33,33,,,,,,2$$,4422,444643446#:***:-::::*--:*5634334344q964,",
"$,,3,33,,33,,,:,$o$4423,66744423,#**---:<::**---*2234944444qq6,>",
"$,,3,,3433,32,32$o-43224997434444+X#-*::12****-:*6534944449q964-",
"$,,>,,343,,3,>>,$o,2432249494343*.X#$:=-:*::-:::$444479449999e9$",
"$>,->,43,,,,,,:-*o-44432499496442..+$*$**::>:&**$43444474449494$",
"$,-->,,,,,,,,,>>$X$2,33346444444,X#$**---:-2**;@@44444479444492,",
"-,>->2,,,,,,,334*X$24443234644442o,->:211:;*-:>&$444474794444299",
"-,,,,,,,,2,,,6q6-o*=3343444447442+2>2>2>::---3,>$444477774494499",
",,3,,,,33443,,46,o>,=,33343443376#><::>>>---:,,-$9433477w9942449",
"-,3,2,4444993>>,,o4q4-$,23244,>99#2><:2>>:>--,,>$74,444997439499",
"-4,4,-999942,,,-*@-ye9,$-44349946#2>:<22:>>->,,2-e4444497,-4444e",
"&;:;*%***$;;;*&@++#$*-23>O>2>:-$@+*>22552121:1:=&&;;;::;-=#&-::&",
"*:>;;*O@#2>$@O.@o$-:,:-$*@O@&@+X@#$**###*#.@+X++&>;>:;;;:><:::;-",
"56q5<:##*;<-*@OO-222,,2,<:@**&#+6653265523:3532>&=-----::>>>>::-",
"50q2:**:;;;:;$@O*2,,,,2351:&--*@32222222323:31>>&--;:-;;>:>::<:&",
">5:>**-:;;=:<;<@*,,,2244622,:--+2443222233,->>,2&--;-=--&>>;;--&",
":2;;***>:;;;;;;O$,,223696632>>-+22,22323443,:,,>&;-;::;;:<::---:",
"*2:;***;====;**@#-,,,246962,,>=@4,,323362,,2:22@+>=:>;:>:>:;--&:",
"=2:****;=*==;**O-,,2236462>2,>#$3,22326666,2::>:#&&=-;;;::>:&&-&",
"::-***=******-*@-,22246462222>$*,22,,688806,:12=#>>&#&&>-::&>&&&",
";=-***=****-*&@O,33233396442,,-#,32368006821:22-#,1,&1,&;-;;>>:-",
";;;***=**@***&@@2362,,266422223-33368886332>*>,>#&1&&3&#-:-:>1,&",
";*-*===*@#***;*O,99633399452246,66698866433,=*,,&77&&&>&-11:::>:",
"*****=**@*;**<*@,qq942496222256<363433863>>,#>*:#&&1&1>1:,11:1&&",
"*::**=**@&**:<>O,qw99222>>2566q:362343633>,=22=O#&1<><,,2&>:::,&",
"*2:;*:*@$#**<2*-22eww92,-:-269q;$56944633,-25,=%#&&&&51<3>1:1&:#",
"+******.*$#@@@+:2*,>22>-@@&$$$%@:*65533,-*+>:*+X #&########&&###",
"*:****@%;;***@OO@---;=;-*&@%&X@@&&&&&&&&&&<&O&&#...&:#,#,:7,:$:#",
"<<<2<2*:55255;<O243231269960q6%qr00600060070<02&& &&$,,,,,,::,:#",
"<22222;25200055%2444239q9q6qqq:q00050666000r5<73&.&&,:7,-,,,,,,#",
"2222::<22255505%3994eqqq696qqq:90006655500008&:1&#553$,$-:-,,,:#",
":<>:22255555555%49wwwewwqqqqqq:9000555555850>3r:&&211&,#--$,:,-#",
"*:2596555050555%49wwweqq9weqeq:45000606076512tt8&#&1,,,,----,:,#",
"225690555000525*99weeeqqqqwee9-21100066566658rr0&&&1,:,,--,,,>,-",
"25qq9595550q552*99eewqwqqwq992*,55006005560008wq&&5<->::-,->->--",
"20q005555q0052<%qtteww96wwq22<&;15152505560q00r8##,-,-:,-,-,,--,",
"5000q05550055<*%6qtewqwwwq521:%;552121256600r673##,,,#,---,,,>$>",
"25qqq5255552<**O34weq9ewq83>>:%25655522t0000551&##,>--:--->,,>,,",
"22565<<2255505t%44qww9ew89r01:%500005225500655:&2#,:-,:,,,,,,>,,",
"225555255550005;99698q8qqqq95:%2qqq052200868732<&#<<,,:,33,,>-,,",
"522555552<20005;qqq9qw989qe91:O;qqqq0:558015133&##&&#,&3,,,,>>,$",
"52255555550000<;9998qww9q9990;.%<00q2:55q71335<##,>:,&#&,,,,,,,,",
"@;:2<222200052;+6->,2,,>3>:=*...%;:**=-:&&55&&####:-,&####:::,##"
};
