/* XPM */
static char *_a8ec1068b0d401f963599b3d13e1783GSX9E4jLKmlFhjT0[] = {
/* columns rows colors chars-per-pixel */
"64 64 65 1 ",
"  c None",
". c #242222",
"X c #2E2C2C",
"o c #352E2E",
"O c #353131",
"+ c #393636",
"@ c #383737",
"# c #3E3838",
"$ c #3D3A3A",
"% c #423535",
"& c #403A3A",
"* c #423C3C",
"= c #413E3E",
"- c #474444",
"; c #4D4545",
": c #4C4747",
"> c #4F4949",
", c #504C4C",
"< c #524C4C",
"1 c #545252",
"2 c #5B5656",
"3 c #5F5B5B",
"4 c #605B5B",
"5 c #696767",
"6 c #767272",
"7 c #7C7878",
"8 c #878484",
"9 c #8A8686",
"0 c #948F8F",
"q c #929292",
"w c #9A9A9A",
"e c #9F9F9F",
"r c #A19E9E",
"t c gray63",
"y c gray66",
"u c #ACACAC",
"i c #AEAEAE",
"p c #B1AFAF",
"a c #B2B2B2",
"s c gray72",
"d c #BBBBBB",
"f c #BEBBBB",
"g c gray",
"h c gray77",
"j c #C5C5C5",
"k c #C6C6C6",
"l c gray79",
"z c gray82",
"x c gray84",
"c c gray86",
"v c #E1E1E1",
"b c gray90",
"n c #E9E7E7",
"m c #ECECEC",
"M c #EFEFEF",
"N c gray94",
"B c gray96",
"V c #F9F7F7",
"C c #F9F8F8",
"Z c #F9F9F9",
"A c #FBF8F8",
"S c #FAF9F9",
"D c #FBF9F9",
"F c gray98",
"G c #FEFEFE",
/* pixels */
"                                                                ",
"                                                                ",
"                                                                ",
"                                                                ",
"                                                                ",
"                                                                ",
"                                     FVFVAVFFVF                 ",
"                                    FDDDDDDDDFDDDD              ",
"                                  DDDDDDDDDDDDDDDDD             ",
"                                  DDDDDDDDDDDDDDDDD             ",
"                                  DDDDDDDDDDDDDDDDDD            ",
"                                 DDDDDDDDDDDDDDDDDDD            ",
"                                 DDDDDDDDDDDDDDDDDDD            ",
"                                 DDDDDDDDDDDDDDDDDDD            ",
"                                 DDDDDDDDDDDDDDDDDDr            ",
"                                 DDDDDDDDDDDDDDDDFFy            ",
"                                  FDDDDDDDDDDDDDDDD             ",
"                                   DDDDDDDDDDDDDDD              ",
"                                    fDDDDDDDDDDDD               ",
"                                    DDDDDDDDDDDt                ",
"                                   DDw    Dia  F                ",
"                                  DD      d    j                ",
"                                 DD       s     G               ",
"                               DDD        a     G               ",
"                            DDDd          j     GG              ",
"               ...      eFDDF             G     GGy             ",
"            +$&&&&&&+9vGj                 G      Gb             ",
"          && &$  6fq *1                   G      GG             ",
"         +*& &-xNFv9 &%                   G      GG             ",
"          *& && 77&$X&                    G       G             ",
"          &&&$&   &&&                     G       Gy            ",
"             X:cq dr                      G       Gt            ",
"             o& zn94                      G       Gy            ",
"             o$   &$                      l       Gi            ",
"             O&  jpa                      cG      G             ",
"             o&qv 45                      cG      G             ",
"             X& $  &                       G      G             ",
"             O&    &.                      G      G             ",
"              *&+  &O                      G      m             ",
"              +&$2-&O                      G                    ",
"                 :<                        G                    ",
"                 >                         G                    ",
"                 <                         zw                   ",
"                 :                         yG                   ",
"                 :                          GG                  ",
"                 :                         B NN                 ",
"                 ,                    lclm     bz               ",
"                 ,                 xGGG          Gb             ",
"                 :               GGGG             FGj           ",
"                              NGG                   F           ",
"                            GGG                                 ",
"                          Gy                                    ",
"                         G                                      ",
"                                                                ",
"                                                                ",
"                                                                ",
"                                                                ",
"                                                                ",
"                                                                ",
"                                                                ",
"                                                                ",
"                                                                ",
"                                                                ",
"                                                                "
};
