/* XPM */
static char *b7d6356a753445b788e76de07d5c658bWvXrlAHIioGqdcHT[] = {
/* columns rows colors chars-per-pixel */
"64 64 172 2 ",
"   c None",
".  c #180404",
"X  c #282626",
"o  c #282727",
"O  c #292727",
"+  c #2A2828",
"@  c gray17",
"#  c #2E2A2A",
"$  c #322F2F",
"%  c #323030",
"&  c #333131",
"*  c #343232",
"=  c #343333",
"-  c #373333",
";  c #383232",
":  c #3C3131",
">  c #383434",
",  c #383535",
"<  c #393636",
"1  c #3D3737",
"2  c #3B3A3A",
"3  c #3C3939",
"4  c #3F3A3A",
"5  c #3E3B3B",
"6  c #3F3C3C",
"7  c #3F3D3D",
"8  c #571D1D",
"9  c #751010",
"0  c #771C1C",
"q  c #482424",
"w  c #532121",
"e  c #403A3A",
"r  c #403B3B",
"t  c #413B3B",
"y  c #443838",
"u  c #403C3C",
"i  c #413C3C",
"p  c #403D3D",
"a  c #413D3D",
"s  c #423C3C",
"d  c #423D3D",
"f  c #433D3D",
"g  c #403E3E",
"h  c #413E3E",
"j  c #413F3F",
"k  c #423E3E",
"l  c #433E3E",
"z  c #423F3F",
"x  c #443D3D",
"c  c #443E3E",
"v  c #782828",
"b  c #434040",
"n  c #464141",
"m  c #494444",
"M  c #4B4444",
"N  c #494646",
"B  c #4E4747",
"V  c #4C4848",
"C  c #4D4949",
"Z  c #4F4848",
"A  c #504A4A",
"S  c #504D4D",
"D  c #514D4D",
"F  c #524C4C",
"G  c #534D4D",
"H  c #555353",
"J  c #5A5454",
"K  c #5B5757",
"L  c #5F5B5B",
"P  c #605B5B",
"I  c #696767",
"U  c #6C6C6C",
"Y  c #757171",
"T  c #797575",
"R  c #7B7777",
"E  c #820C0C",
"W  c #820D0D",
"Q  c #870E0E",
"!  c #971515",
"~  c #A51212",
"^  c #A51313",
"/  c #AC1717",
"(  c #B31212",
")  c #B51414",
"_  c #BD1313",
"`  c #B81414",
"'  c #B91414",
"]  c #BA2020",
"[  c #B82929",
"{  c #8C6363",
"}  c #AF6161",
"|  c #868383",
" . c #878484",
".. c #898585",
"X. c #938E8E",
"o. c #958C8C",
"O. c gray57",
"+. c #949191",
"@. c gray60",
"#. c #9B9B9B",
"$. c #9D9D9D",
"%. c gray62",
"&. c #9F9F9F",
"*. c #A09D9D",
"=. c #A0A0A0",
"-. c gray63",
";. c #A2A2A2",
":. c gray64",
">. c #A4A4A4",
",. c #A5A5A5",
"<. c gray65",
"1. c #A7A7A7",
"2. c gray67",
"3. c gray68",
"4. c #B0AEAE",
"5. c gray69",
"6. c #B1B0B0",
"7. c #B1B1B1",
"8. c #B7B7B7",
"9. c #B9B9B9",
"0. c #BBB9B9",
"q. c gray73",
"w. c #BDBABA",
"e. c gray74",
"r. c #C6A5A5",
"t. c #C1B9B9",
"y. c #C0C0C0",
"u. c #C1C1C1",
"i. c #C3C3C3",
"p. c gray77",
"a. c #C5C5C5",
"s. c gray78",
"d. c #C8C8C8",
"f. c #CACACA",
"g. c #CBCBCB",
"h. c #CDCDCD",
"j. c gray81",
"k. c #D0D0D0",
"l. c gray82",
"z. c #D2D1D1",
"x. c #D5D5D5",
"c. c #D6D5D5",
"v. c #D8D8D8",
"b. c gray85",
"n. c #DADADA",
"m. c #DBDADA",
"M. c gray86",
"N. c #DFDEDE",
"B. c #DFDFDF",
"V. c gray88",
"C. c #E4E4E4",
"Z. c #E6E6E6",
"A. c #E7E7E7",
"S. c #E8E6E6",
"D. c gray91",
"F. c #EAEAEA",
"G. c gray92",
"H. c #EEEEEE",
"J. c #EFEEEE",
"K. c #EFEFEF",
"L. c gray94",
"P. c #F1F1F1",
"I. c gray95",
"U. c gray96",
"Y. c #F6F6F6",
"T. c #F9F9F9",
"R. c gray98",
"E. c #FBFBFB",
"W. c gray99",
"Q. c #FDFDFD",
"!. c #FEFEFE",
"~. c white",
/* pixels */
"                                                                                                                                ",
"                                                                                                                                ",
"                                                                                                                                ",
"                                                                                                                                ",
"                                                                                                                                ",
"                                                                                                                                ",
"                                                                                                                                ",
"                            !.!.G.!.!.!.!.!.!.!.d.d.!.                                                                          ",
"                            !.                        !.@.                                                                      ",
"                          n.L.        !.      = o.    !.!.                                                                      ",
"                        =.!.  . ~ ] [ K 2.C.v W / q =.  !.G.                                                                    ",
"                        1.!.U @ 9 _ ' ~ }   0 _ ) w G.  !.!.                                                                    ",
"                        2.!.    8 ) ' ! r.U.O W Q #       !.                                                                    ",
"                        1.!.        { : R.  k.t.r =.      !.                                                                    ",
"                        %.!.        !.        !.          !.                                                                    ",
"                        1.!.    !.              !.!.    !.d.                                                                    ",
"                          R.!.    !.!.!.!.!.!.!.!.!.    R.                                                                      ",
"                            !.!.!.!.!.!.!.!.!.!.!.!.!.!.n.                                                                      ",
"                              !.!.!.!.    !.!.!.!.!.!.e.                                                                        ",
"                                =.U.!.!.!.!.K.G.U.!.!.!.                                                                        ",
"                                K.    7.3.K.        @.!.!.                                                                      ",
"                                i.        q.            !.!.                                                                    ",
"                              !.          8.              !.!.                                                                  ",
"                              !.          7.                !.!.!.                                                              ",
"                            !.!.          a.                    q.!.!.!.                                                        ",
"                          1.!.!.          !.                          R.!.!.!.%.            O O O                               ",
"                          C.!.            !.                                  i.!.V...3 d d d d d d d 2                         ",
"                          !.!.            !.                                      H b   O.w.Y     7 d   d d                     ",
"                          !.!.            !.                                      y d   | V.R.K.x.N d   d c 3                   ",
"                          !.              !.                                        d % r c R R   d d   d c                     ",
"                        1.!.              !.                                          d d d       d 7 d d d                     ",
"                        =.!.              !.                                            *.q.  O.n.C %                           ",
"                        1.!.              !.                                            L ..S.k.  d ;                           ",
"                        2.!.              d.                                            r d       r ;                           ",
"                          !.            !.n.                                            7.4.p.    d >                           ",
"                          !.            !.n.                                            I P   V.X.d %                           ",
"                          !.            !.                                              d     r   d %                           ",
"                          R.            !.                                            O d         d >                           ",
"                          K.            !.                                            > d     3 d b                             ",
"                                        !.                                            > d N K r d 3                             ",
"                                        !.                                                D B                                   ",
"                                        !.                                                  A                                   ",
"                                      @.k.                                                  G                                   ",
"                                      !.1.                                                  B                                   ",
"                                    !.!.                                                    C                                   ",
"                                  L.L.  U.                                                  C                                   ",
"                              k.C.          G.d.n.d.                                        A                                   ",
"                          C.!.                    !.!.!.x.                                  D                                   ",
"                      i.!.R.                          !.!.!.!.                              C                                   ",
"                      R.                                      !.!.L.                                                            ",
"                                                                  !.!.!.                                                        ",
"                                                                        1.!.                                                    ",
"                                                                            !.                                                  ",
"                                                                                                                                ",
"                                                                                                                                ",
"                                                                                                                                ",
"                                                                                                                                ",
"                                                                                                                                ",
"                                                                                                                                ",
"                                                                                                                                ",
"                                                                                                                                ",
"                                                                                                                                ",
"                                                                                                                                ",
"                                                                                                                                "
};
