/* XPM */
static char *bc10bcf3beaa437dcdddc89b154f75662EGDmQZqcfqO5hBs[] = {
/* columns rows colors chars-per-pixel */
"64 64 86 1 ",
"  c None",
". c #110000",
"X c #242222",
"o c #272727",
"O c #2A2525",
"+ c #2E2C2C",
"@ c #352E2E",
"# c #392D2D",
"$ c #313030",
"% c #353131",
"& c #393636",
"* c #383737",
"= c #3E3838",
"- c #3D3A3A",
"; c #461F1F",
": c #561717",
"> c #521B1B",
", c #760707",
"< c #781515",
"1 c #423535",
"2 c #403A3A",
"3 c #423C3C",
"4 c #413E3E",
"5 c #792323",
"6 c #474444",
"7 c #4D4545",
"8 c #4C4747",
"9 c #4F4949",
"0 c #504C4C",
"q c #524C4C",
"w c #545252",
"e c #5B5656",
"r c #5F5B5B",
"t c #605B5B",
"y c #696767",
"u c #6C6C6C",
"i c #767272",
"p c #7C7878",
"a c #830505",
"s c #880606",
"d c #980D0D",
"f c #A60A0A",
"g c #B60C0C",
"h c #BE0B0B",
"j c #BA0C0C",
"k c #AD1010",
"l c #BB1A1A",
"z c #B92424",
"x c #8D6363",
"c c #B06161",
"v c #878484",
"b c #8A8686",
"n c #968D8D",
"m c #948F8F",
"M c #929292",
"N c #9A9A9A",
"B c #9F9F9F",
"V c #A19E9E",
"C c gray63",
"Z c gray66",
"A c #ACACAC",
"S c #AEAEAE",
"D c #B1AFAF",
"F c #B2B2B2",
"G c gray72",
"H c #BBBBBB",
"J c #BEBBBB",
"K c gray",
"L c #C7A6A6",
"P c #C2BABA",
"I c gray77",
"U c #C5C5C5",
"Y c #C6C6C6",
"T c gray79",
"R c gray82",
"E c gray84",
"W c gray86",
"Q c #E1E1E1",
"! c gray90",
"~ c #E9E7E7",
"^ c #ECECEC",
"/ c #EFEFEF",
"( c gray94",
") c gray96",
"_ c gray98",
"` c #FEFEFE",
/* pixels */
"                                                                ",
"                                                                ",
"                                                                ",
"                                                                ",
"                                                                ",
"                                                                ",
"                                                                ",
"                                     `TT```````^``              ",
"                                   N`            `              ",
"                                   ``  n$   `    (W             ",
"                                  ^` C;ka5!Aezlf. `C            ",
"                                  `` ^>gh< cfjh,Ou`Z            ",
"                                  `   OsaX)Ldjg:  `A            ",
"                                  `   C-PR _#x    `Z            ",
"                                  `     `    `    `B            ",
"                                  T`  ``       `  `Z            ",
"                                   _  `````````  `_             ",
"                                   W``````````````              ",
"                                    J``````  ````               ",
"                                    ```)^/````)C                ",
"                                   ``N    /AF  /                ",
"                                  ``      J    U                ",
"                                 ``       G     `               ",
"                               ```        F     `               ",
"                            ```H          U     ``              ",
"               XXX      B```_             `     ``Z             ",
"            &-222222&bQ`U                 `      `!             ",
"          22 2-  iJM 3w                   `      ``             ",
"         &32 26E(_Qb 21                   `      ``             ",
"          32 22 pp2-+2                    `       `             ",
"          222-2   222                     `       `Z            ",
"             +8WM HV                      `       `C            ",
"             @2 R~bt                      `       `Z            ",
"             @-   2-                      T       `A            ",
"             %2  UDF                      W`      `             ",
"             @2MQ ty                      W`      `             ",
"             +2 -  2                       `      `             ",
"             %2    2X                      `      _             ",
"              32&  2%                      `      /             ",
"              &2-e62%                      `                    ",
"                 8q                        `                    ",
"                 9                         `                    ",
"                 q                         RN                   ",
"                 8                         Z`                   ",
"                 8                          ``                  ",
"                 8                         ) ((                 ",
"                 0                    TWT^     !R               ",
"                 0                 E```          `!             ",
"                 8               ````             _`U           ",
"                              (``                   _           ",
"                            ```                                 ",
"                          `Z                                    ",
"                         `                                      ",
"                                                                ",
"                                                                ",
"                                                                ",
"                                                                ",
"                                                                ",
"                                                                ",
"                                                                ",
"                                                                ",
"                                                                ",
"                                                                ",
"                                                                "
};
