/* XPM */
static char *wall[] = {
/* columns rows colors chars-per-pixel */
"64 64 31 1 ",
"  c #363134",
". c #3B3537",
"X c #3C3639",
"o c #3F393C",
"O c #413B3E",
"+ c #433E41",
"@ c #464144",
"# c #494446",
"$ c #4C4649",
"% c #4F494B",
"& c #524B4D",
"* c #564F51",
"= c #584F52",
"- c #575152",
"; c #5A5254",
": c #5E5857",
"> c #5D5758",
", c #5F585A",
"< c #605758",
"1 c #625B5C",
"2 c #66605F",
"3 c #665F60",
"4 c #676060",
"5 c #696362",
"6 c #6E6866",
"7 c #6E6B6E",
"8 c #716D6F",
"9 c #726E71",
"0 c #757174",
"q c #7C797B",
"w c #807D7E",
/* pixels */
"-90q077q;;9007w,&99q077q;;8007w>&99q077q>-7007q>*99q077q:-7097w1",
"+1>>------;;;:::@1,>;;---;;;;>>>+11>-;--;->>;>>>+1,>-;;;-&;:;>,,",
"$1;--;;-;;;:->--%,;;;-;--;::;;;-%,;---;--->;;;;;%,---;--;-;;;>--",
"$:-;;;;-;-;;---;%:;;-;--;-;;;;;;%>--->--;*;;*;;;%>;;;;--;-:;;;--",
"@;;;---%%#**;**-O-;--***%#-&----+--;--&&%@-*==*;+;-;--*&&@*****-",
"&;##&;&$#$$@#&$*-;##*-&$#$$@@&%%&>$@&>%$#$$#+*$&*-$@%>&$#$$$+*$*",
"21;o-::,,;-**33341-O*>><,:---14311>O&>:,,>-*-13333-@&>>,,>-**333",
":;;o,----->*>;,,:;;o,*=;;-:->;,,:>-O,*->-*>=>>,<>--+,**--*>*;;>,",
";;;$>;;;-,,*1;>,;-;#;;==->>*,;;<;;;#;;==;>>*<>=<>=>$;;;=;;,*,>-,",
">;<&<==;>;-*---->->&<==;>-;=;;;=>-,%<=;=>;;*;;=;>=<%>=;=>;-**;-;",
"**&+$%+%%$&$$$$%***$$&$$%%&$@$#%-&&$$&$$%$%$+$$%*&%$$%$$%$&$#%$%",
"3,=;$ %3313-33o-5<*=% &,313-34+;2,;;$ &<313;33+;5<;;% %,333*34o-",
">=;;*X;=;;=**-#;>===*O==-=*;=>+;:-;;&O=;====;;+<;=;;*+*=;;==*-#;",
"==>;=%3>;;=;>-$*=>>=*$3>;;=;<=%=;;;==%1<>;==<;+;=;>==%<>;;=;>-$;",
"==;>=#3>;;=>;*$;==;>=#3;==;,;=#;-;;>;@3;===<;;+;==;>=$3;;;=>;*#-",
"%*;=$+3=&%***%#*%&;;%o3**%*==%#&&&;;&o1;*%**=%%&**=;%+3=&%***%#*",
"X<361->5++,33*6+X<161;>5+O>11>6@.:26,;:5+O>31;6@.>16,;:2#o:21;6#",
"+3<;;;;;--;;*>,>+3<;;;-;--;>;;<>+1::;;--;=;;;;>>+<<>;-;---:;;;>>",
"$<=;;;--;;;;;;;;$<;;;--->-;>;;;=%,--;;--;=>>;;;;&>;;-;--;-:;;;;;",
"%<;;;---;--;*;;;%>;;-;;---;-=;=;%:;-;;--;==>=;=;$>;;;;--;-;;=;=;",
"+;;;---&%#-*==*;+;;;---&%#-**==;@;;;--*&$#-=**=;+;;;---*&@;&===;",
"%;##&-%#@$$#+&%%%;##&-%##$##+*$%%;##&-&##$#@@%$&&;##%-%#@$#@+&$&",
"42;o&::11>-*;35322;o&::1,>-*-33322;O*,>1,;>-*35311>@&:,<1>;-;151",
":;;O1--;-*>*>;,<:;;O1--;-=>=>;,<:-;O,=--;*>=;>><<;;O,--;;=>-;>><",
";-;#>==>=>>*3*;,;-;$;;;;=>>*,;;,;;-$:;--;>>=>>;,;;;%;;==->>=>>;:",
":;:%<===>==*;;*;:;:%<;==>;;*;;;;:-:&:;-;;;;===-;;;>%,=;*;;;--;-;",
";&&$$&$$%%&%+%$%-&&$$&$$%%&$+%%%-&&$$&$$$$%%#$$%=&=$$%$%%$&$$$#%",
"5,&;$ &1113=33o;2:--$ &,313*33o;21--$ $1333;33o*41**%.%,311>11O-",
":-;;&o;==;==;;+>:;;;&o;===*==;+;;;==&O;=;====;+;>==;*o=*;;==;-@>",
";-;;=$1>>==;>;%=-;;;=$1>;;=>,;$==;;;;$1>;;;;,;%=-;;-*%<,;==;:;#-",
"-;;;;$3>==;>;;+;;;;>;$3;;==>;=$>;=;>;$1>==;>;;#;==>>;%3;;=;>;;$-",
"&&;>%o3=*%===%$&&&;;$O5=*%*==%#%&*;>&O1=*%*==%#%**=;%o3=**&==&#&",
".:26,-:5OO>33-6+.:26,-:5OO<1<-6@.>161;;2+o>11;6@X>161;:2#o:2<;5#",
"O2:-;;;-===>*;>,O1::>;--;=;>;;>>+1<;;-;;-*>;-><>+<<>;---;&;;;;::",
"$2;;-;;-;;>;;;;;%1;---;-;;>;;;;;%1;;--;;>-;>;;;=&<>-----;-::;;;;",
"$:-;-;--;;=>=;=;$:;--;--;=;;;;=;%;;;-;;--*;-=;=;&;;--;;-;-;;;;;;",
"@;;;--*&%$==***;@;;;*-*&&#;&;==>+-;;---&&#**=*=;O;;;---*%#;&=&=;",
"%-##&-%#@#@@#%#%%-##*-%@@@##@$#$%-##&-%#+#$##%$%$;##&-%####@@&#&",
"42;o*>>3,>>--35322;O*>>1,>>=-15322;+&::23>>-*35322>+%,:<,,>=-151",
":;;o3**-;*;=>;,1:;-O1==;;&>->>>>:;;O1---;*-*->,<<;-+,-;;;-;=><<<",
";--$:;--=>>=<;;,;;;#;;-;=>>*<;>>;;;#;;;;=>>=,>;,;;;$;;;=->>=>>;,",
":;,%,;;->;;=;=--;;:%1;;->>;*;=-;:;:%<;==>;;*==*;>=,%,;==;;>----;",
"&&-#&&$&%%&%%$$&;--#$&$&%%&%$%%%;&-$$&$&&$&%$%$*=&=$%%%%&%&%$%$&",
"5,--# $,3<3=13o*2:--$ $<1<3=13o=2:--$ $,113*,3o=5,;*% #,3,1-11o-",
";=-;&o;=;;====+;;;=;&.;&=====;+;:;=;&O==;====;+;;=*;*o**=;==-;@-",
";;;--$1>;=;;>>%===;=-&1>>==>>;%=-;;==%1>>===,;$=;;;-*%,,>==;,;$;",
"=;;>;$3>===>;=$=;=;>;$1<===>>=#;;;;>=$3;===>;=+;==>>*%3;===>;;@;",
"*=;>%o4=*&*==*+**=;;&O5;*&*=**#&&&;>&o3;=**==*$***;;&+3=**===&$&",
".>16:-:2OO:2<;5@.>161*;2@.:21;6+.:25,-;5+X>31=6+X><61;:2@o;2<;2#",
"+<<;-;;-;-;;;;::o3>;;;;-;-;;=;>>O1::;-;;=*;;=;>>+<<>-----&:;;;<<",
"$1;;;;--;;;:;;;;%1>--;;-;-;:;;;;%,:-;-;-;=;>;>;;$<;;;-;-;-:;;;;;",
"$>;;------;;=;;;%,--;---;-;;=;=;%:-;-;--;=;;;=;;&>;;;-;-;-;;;;;;",
"+;;;---*&$;&===>+--;;;&&&$-&;-;;@-;;*-*&*$*====;@&;;---&&#;&==-;",
"$;##&-%@@@#@@&@$%;##%=%+@##@@$#$$-##&*%@+@#@+%#%$;#@&-%@@##@@%#$",
"52>o-,,1,>>-;15133;+*>33<:>-;15422;+*,,3,>>**36352>@%<,11>>-;161",
":;-o1--;;=>&>><1>;-o3*=;;-;->>><::;o1**;;*>*;>>,:;;O,-;;;=;-;<<<",
";=;+;=;=->>&<;>,;;;$;=;=*>>*,;;<;;:#;;--=><=<;;,;*;$=;=;->>=:>;,",
">*3%3;=;>;>->--;;;,%,;=;;>-*;;;;:;:%,;;-;;>&;;;;>;,%<;;=;>>----;",
"==;$$&%%&$&$$$$&;=;+%&%%*%&&%&%%-&;$$&&$%%&%$%%%;**%%*%%&%&%$&$&",
"4,=;+ $,<,2-11o-3,=*$ $,1,1*1,o=2:&;$ $,3<3=3,o=4>**$ #><,1;,1O&",
";=-;%X;==;==;;@-;;=;&X=&-;;*=;+;;;=;&o;=;;=;=>+;;*=;*o*=====;-@>",
";=;*=%3>>=;;,;$-;;;;=$3>;-;;>;%;==;=;$<>;=;;>=%=;;;-=%<>>;=;,;#-",
";;,>;$3>;==>;=#;=;;>=%33;;;>;=+=;=;>;$3>;==>;=+>==;>=%3>;==;;=#-",
"**;;%+3=*=====@*&==>%+3=&%=;=*%**=;>&o5==&===*#***;>%+3=**=;;=$&"
};
