/* XPM */
static char *wall[] = {
/* columns rows colors chars-per-pixel */
"64 58 233 2 ",
"   c #36453C",
".  c #3B433D",
"X  c #37483E",
"o  c #573D4B",
"O  c #4D3B4E",
"+  c #3B4C42",
"@  c #394B42",
"#  c #3D5146",
"$  c #3E554A",
"%  c #3F5F51",
"&  c #424B44",
"*  c #484747",
"=  c #54424C",
"-  c #59454D",
";  c #43544B",
":  c #4B554E",
">  c #44594E",
",  c #49594F",
"<  c #54534E",
"1  c #5C4453",
"2  c #5D4A55",
"3  c #5C4756",
"4  c #465C51",
"5  c #4A5C53",
"6  c #4D5754",
"7  c #545454",
"8  c #525B55",
"9  c #5C535A",
"0  c #555C5A",
"q  c #5C5A5C",
"w  c #595456",
"e  c #614655",
"r  c #624A54",
"t  c #62465A",
"y  c #654B5B",
"u  c #6A4D5D",
"i  c #694B55",
"p  c #64535D",
"a  c #6C525E",
"s  c #675659",
"d  c #72535C",
"f  c #74585E",
"g  c #77585A",
"h  c #466255",
"j  c #4A6156",
"k  c #4D655A",
"l  c #4D6A5D",
"z  c #466659",
"x  c #52655C",
"c  c #5B625C",
"v  c #51695E",
"b  c #57645B",
"n  c #5F5B63",
"m  c #574B61",
"M  c #6B4E61",
"N  c #6D5362",
"B  c #645B63",
"V  c #6C5C65",
"C  c #6D5B68",
"Z  c #665769",
"A  c #725464",
"S  c #755A64",
"D  c #7A5C64",
"F  c #755669",
"G  c #7A566B",
"H  c #745A6A",
"J  c #7B5B6C",
"K  c #785763",
"L  c #7D5E72",
"P  c #705B71",
"I  c #6A566C",
"U  c #4E6D60",
"Y  c #5C6463",
"T  c #526D62",
"R  c #5A6B65",
"E  c #5D6D69",
"W  c #586564",
"Q  c #4E7163",
"!  c #537165",
"~  c #577369",
"^  c #5F6F71",
"/  c #646363",
"(  c #6B6265",
")  c #656469",
"_  c #6C646C",
"`  c #636A6B",
"'  c #6C6A6E",
"]  c #676B65",
"[  c #73636D",
"{  c #7C626C",
"}  c #756A69",
"|  c #64726A",
" . c #77736D",
".. c #6D6C72",
"X. c #6B6770",
"o. c #746571",
"O. c #7D6272",
"+. c #756A73",
"@. c #7B6B75",
"#. c #7C6C79",
"$. c #6B7272",
"%. c #737571",
"&. c #797777",
"*. c #6B6157",
"=. c #815C68",
"-. c #815F73",
";. c #894863",
":. c #A7597C",
">. c #B34B79",
",. c #85686A",
"<. c #836375",
"1. c #836A74",
"2. c #8B6D73",
"3. c #856479",
"4. c #8A667A",
"5. c #846C7A",
"6. c #8C6B7C",
"7. c #896474",
"8. c #926C7E",
"9. c #986679",
"0. c #8D7175",
"q. c #84727C",
"w. c #8C747A",
"e. c #86797A",
"r. c #93737C",
"t. c #9A7779",
"y. c #947A7D",
"u. c #9B7B7B",
"i. c #937374",
"p. c #906E6D",
"a. c #A37D7A",
"s. c #A5627F",
"d. c #778076",
"f. c #88827C",
"g. c #93837A",
"h. c #9F807D",
"j. c #A3827D",
"k. c #73759B",
"l. c #BA5783",
"z. c #B54C81",
"x. c #8E6D81",
"c. c #936E81",
"v. c #9B6B83",
"b. c #8D7382",
"n. c #887783",
"m. c #947284",
"M. c #997486",
"N. c #937B83",
"B. c #9C7B85",
"V. c #977588",
"C. c #9B7689",
"Z. c #9D7B8B",
"A. c #977888",
"S. c #977D91",
"D. c #847A9A",
"F. c #B26988",
"G. c #A17C87",
"H. c #A2768B",
"J. c #A17C8C",
"K. c #AA7285",
"L. c #A47D90",
"P. c #A76681",
"I. c #C24D86",
"U. c #C45486",
"Y. c #CE7292",
"T. c #7A85B3",
"R. c #7EA1E5",
"E. c #8A8784",
"W. c #9B818C",
"Q. c #998987",
"!. c #99928F",
"~. c #9A9593",
"^. c #9B8195",
"/. c #A48484",
"(. c #AD8984",
"). c #AC8B8B",
"_. c #A58889",
"`. c #B38E8C",
"'. c #B98086",
"]. c #A4948A",
"[. c #B7928D",
"{. c #A98E92",
"}. c #AD9194",
"|. c #A9979A",
" X c #B39394",
".X c #BC9593",
"XX c #B39D94",
"oX c #BC9996",
"OX c #BE9C9C",
"+X c #B8A29F",
"@X c #8E85A9",
"#X c #B39EA0",
"$X c #B9A5A4",
"%X c #C39A94",
"&X c #C39E9A",
"*X c #CC8C94",
"=X c #C3A29D",
"-X c #CCA49D",
";X c #D6A89D",
":X c #CC9AAA",
">X c #C5A5A3",
",X c #CCA5A1",
"<X c #CDA9A5",
"1X c #C8A9A7",
"2X c #D4ABA4",
"3X c #DAAEA4",
"4X c #D3AAA5",
"5X c #DCB2A5",
"6X c #DCB3AB",
"7X c #D6B3AA",
"8X c #DDB7B1",
"9X c #CBB0A9",
"0X c #E4ABA8",
"qX c #E4B3A5",
"wX c #E9B6A6",
"eX c #EDBAA7",
"rX c #E4B5AA",
"tX c #EAB5AA",
"yX c #E5B9AD",
"uX c #EDBBAB",
"iX c #F2BBA7",
"pX c #F1BCAA",
"aX c #E3B6B1",
"sX c #E5BCB3",
"dX c #ECBDB2",
"fX c #E9B4B6",
"gX c #F0BDB1",
"hX c #E093A7",
"jX c #E9C0B5",
"kX c #8696CB",
"lX c #8196D0",
"zX c #82A0DF",
"xX c #80A2E6",
/* pixels */
"j ! ! T ! ! Q ! T 9 w & . v T ~ U ! j j h j ! h ! ! ~ ! T h 4 ~ k . . 4 ~ l j ~ ! ! ! ! Q Q l T k l ; . . . # 4 T 5 k w M M y y ",
"k T z R k T z ! k V ( O . & # l j l > v v l k z l z ~ ! h R 4 l 4 & ; T l z j T j ~ l k l l k 4 ! l T 4 @ 5 5 5 R U n L v.m.V.-.",
"k T ~ > + x v > z k 0 :   ; ; ; v ; X k z l j + T v z T l l j j 4 > > T l l > j k j T j T v > X 4 T l j j T l 5 n _ 5.m.V.C.L.M.",
"v l 4 X + > > l T z j > ; > > l v X X v ! l , X ; j X > W + @ 4 T k > z ! 4 8 5 + + 5 j ! ! T + 4 x x k T l l l Y 5.Z.L.Z.J.H.H.",
"! T h   + 4 # v h v 4 4 , , v T k , . > v z ! j &   6 q / ; $ U 5 T j j ! l E.c 4 @   > T j j 4 > 5 l ) ` R R x T &.J.J.J.Z.Z.C.",
"j ~ ~ 4 , , > l x j j ~ ! j l l k X ; > h U U ! ; < H [ 6 l T l j U l U v ! Q.| ~ x # > k l j 4 4 4 T T ` ) ( ` v ..C.b.c.C.C.<.",
"4 l Q x , 5 T 4 j > l l U 5 4 ! Q h 4 k k k k v % < i q j U U > # U ; T 4 T / R l j @ + 4 l l 4 4 b x l w t N 9 W : 2 u u M N M ",
"5 k l c !.T ~ l > ; j 4 T B b R T k h T j l v j ] |.' : b l U + . ; * @ U Y J ` 0 0 . + 5 T ! l , j ! ` o.L 6.@.O.y 5.&X4XoX>X&X",
"  # j E.|.v l , + & X k j o.V R l ! l k k l j , $XE.~ x E.` z 5 ; / 6.8 ! ` L #.o.o.N V 0 U l # & k ! X.c.Z.S.J.C.A W.qXrXtXuXeX",
"    : &.#X%.T X   + & , / o.o.Y ! U j X j l ! v d.v T v R E.5 T E 3.3.` U E 5.C.c.c.C.3.y R 4 @ ; T U ' Z.J.J.J.C.A  XqX7XrXyXpX",
"& X &.$X+X$.! x @ k q n E E ` > T j ;   > T U l h l k 4 s |.%.l E 5.3.X.h _ m.Z.Z.Z.c.m.u ( , . 6 x x O.J.J.L.J.Z.L `.pXeXiXiXiX",
", k E / ~.l v ; l T c 0 ~ l U U ; 5 . . 8 c l # ; k j + 7 >XE.k +.x.b.#.X.5.C.Z.Z.C.C.3.y S , : ) [ X.V.Z.J.C._.V.F W.rXjXpXuXpX",
"j T Q v j z j ; T z v j U l T T h + & < !.Q.& . @ 4 6   - Q.!.' C G G G @.A A 3.F L L F 1 H b > 7 A F O.4.3.F 3.G M <./.%X%X%X(.",
"5 l l # X # X j ~ ! v ~ j k k U # < g.j.a.e.b   # l E 0 9 N =.O.L L O.F M 1 p b.5.w./.t.r. ., , e.0.w 2 i F L J L O.O.L { <.A N ",
"v ! T X & & > v ~ ! k T # . 8 E._.oXuXjXyX(.q > 4 U U ' 3.C.G.J.Z.J.J.C.c.N N.3XrXqXqXrXrX5X,.].qXrX2.G M.V.Z.J.Z.4.V.8.6.c.C.<.",
"T z v & ( 7 v z l ; j ` . ] |.1XrXuXiXeXyX+X%.b 4 l b #.H.L.Z.J.G.J.J.J.H.L ).uXpXuX3XwXiXiXqXeXuXqX2.x.J.J.J.8.J.H.J.J.C.B.C.C.",
"U h + w 6.5.b k 4 . q o.2 b.>XtXpXpXpXiXyXXX] E.] b o.C.C.C.B.M.L.Z.Z.Z.J.7./.tXpXpXdXuXpXpXpXpXuXrX1.m.C.J.L.L.J.J.J.B.Z.<.A 7.",
", > & <.J.q.5 T > . N <.d 1X3XeXiXpXiXuX~.$.> , ~.B 6.C.c.c.M.m.B._.J.J.B.K Q.tXpXpXpXiXiXpXpXpXqXdXi.<.c.J.H.J.J.J.H.Z.<.6.Z.G ",
"8 8 w N.N.q l T T j C L r >X8X7XuXdXdXQ.R v j ; $.) @.B.C.4.C.J.Z.V.4.C.4.N N.<XaX4XrXsXuXuXuX2X6X<X,.F 4.c.c.4.x.m.V.6.y b.m.O.",
"w r r f 7 , l j v j M 2 = y A a d i 2 x z j   x T ~ V D K a N o 1 M y u o 1 - a u d d i - i d u A u - 1 M t M u t o 1 N d S A S ",
"2X;X;X8X7 + > j b +.W.Z.A.m.C.x.6.A.y ..j j . X Q j XXjX3XaX9Xa -.V.c.x.6.Z.m.C.C.W.m.O.1 3.V.c.c.c.B.Z.Z.4.V.c.4.M N.<XyX2X6X3X",
"iXjXeXeX<   . 5 W &.Z.G.Z.J.Z.L.Z.Z.J ~.| k x X k  .3XiXpXpXrXD m.S.J.C.6.m.M.B.Z.Z.L.c.u C.Z.J.m.J.J.J.J.J.J.J.V.F _.5XqXrXwXpX",
"pXeXiXyX7 & < c j E b.J.G.Z.J.J.Z.V.a {.] l v !.s 7XuXpXpXuX7Xf 6.J.L.Z.C.Z.C.J.J.J.J.6.A C.J.J.J.J.J.J.J.J.J.J.C.F [.yXrXuXtXpX",
"dXeXjXyX8 6 : 4 U x [ C.H.4.c.C.8.C.S $X .k j < 9XrXqXpXpXuXdXJ v.c.Z.C.Z.L.Z.J.J.J.c.c.A Z.H.J.J.J.H.J.J.J.J.J.H.<.`.eXpXpXpXpX",
"5XqXpXrXs Y , , v R [ C.V.Z.c.6.B.6.i }.$X&.] l | <XjXwXqXtX<XA <.x.4.c.C.c.m.B.m.m.C.<.t 6.C.M.b.m.m.Z.Z.C.m.Z.c.A u.3XuXeXuXqX",
"1.y.u.i.s ] : : : p 9 N 2 N A G F N 2 { 2.2.( x Q | 0.2.,.2.1.r M M N H u y e A e u A M 1 M A A V t 2 M A F M G M t S 1.t.t.u.0.",
"G 3.m.c.r.' > 6 C P G G - ).%X.X,X-X-X;X;X%X X .5 ) G b.G <.m.r.c.c.m.-.G y 1.{.{..X-X`.oX,X%X&X}.{.V M F 3.m.b.m.x.F 4.m.c.<.J ",
"x.Z.Z.Z.G.@.7 j R ) x.x.S dXdXuXpXeXpXpXjXeXuX$X' V m.J.Z.B.J.Z.Z.B.B.C.C.F N.yXuXrXqXuXuXuXuXdXgXuXr.<.J.Z.Z.Z.C.L 6.J 3.c.Z.6.",
"Z.Z.Z.J.C.O.q v Q U o.C.A rXpXiXpXpXiXpXiXiXiX5X}.J J.Z.Z.J.Z.J./.Z.Z.J.L.3./.uXiXpXqXuXpXpXpXpXpXqX1.x.Z.Z.L.m.J.J.J.J.J.J.Z.J.",
"L.Z.Z.B.C._ 8 4 T l #.x.D rXpXpXiXiXiXeXpXpXpXgXOXF J.B.c.x.C.c.Z.Z.Z.J.L.<._.iXpXpXpXpXpXpXpXpXpXtX2.b.c.Z.Z.Z.J.J.J.J.G.Z.Z.Z.",
"x.V.C.B.n.w , B o.) b.3.A 7XdXpXiXeXeXa.tXiXpXuX Xa m.J.C.C.C.B.Z.L.C.J.C.A B.rXuXpXpXpXiXjXeXtX3XdXr.<.V.Z.Z.Z.J.J.B.L.H.J.Z.6.",
"F L x.n.| U 5 C L <.G G - }.+X.X-X;Xp.}.:X%X&X XW.- J q.6.H 5.q.6.4.J 6.J y 1. X=X).&X-X%X;X,X.X>X).S y L -.3.L -.3.3.L J <.<.L ",
",.,.{ R U T 5 p M M G N p N G M a a = V ,.p.p.t.p.p.i.y.0.6.,.- y F F N t N y H A J A 2 O t F A G N a N F u G A M o a 2.t.1.r.2.",
"5X6X<X%.h T p b.M.C.B._.Z.V.L.C.M.C.V `.qXjXeXiXiXpXpXpXqXuX7XA 3.V.V.c.m.Z.V.C.Z.J.Z.<.e 6.C.M.8.C.J.J.Z.m.S.N.m.N y.2XrXrXaXrX",
"eXpXuX+X%.e.<.Z.J.Z.Z.G.J.J.Z.Z.B.J.f -XjXiXjXjXiXpXpXpXpXpX5XJ C.L.Z.Z.4.c.c.V.W.J.Z.m.A C.J.G.C.W.Z.Z.Z.J.G.J.m.G }.4X3XrXqXuX",
"eXpXdXsX/.N F C.Z.J.J.J.J.C.C.L.C.M.g [.iXiXeXiXpXuXpXeXpXpX7XD 3.C.G._.Z.J.Z.G.J.Z.C.3.M J.J.J.J.J.J.G.Z.J.L.J.B.G `.uXpXpXpXpX",
"eXwX%X(.(./.=.C.J.J.J.J.C.c.c.v.c.H.F &XeXjXiXqXqXtXwXpXpXpXrXD x.c.J.c.J.J.J.J.J.J.M.x.A V.H.C.J.J.J.J.J.H.H.F.F.>.Y.tXpXpXpXpX",
"9XoX(..Xy.y.N 6.Z.V.6.C.6.m.c.V.V.4.e {.2X5X;X6X6XjXsX7X3X6X>Xa -.4.4.m.A.6.6.C.6.c.m.L M -.V.x.6.6.6.C.Z.V.9.F.U.I.>.Y.*XgXgX3X",
"a S f { p N 3 u u M 1 1 1 2 u u u y 1 V F { D ,.g g D { s g S 1 M t y y 1 1 o y 1 t y Z k.Z #.Z y 1 - 1 e y u :.U.Y.Y.I.;.=.=.F ",
"-X-X4XrX4Xm.M 4.4.c.B.J.C.c.L.8.c.V.y {.4XqXqXuXeXpXeXeX;XrX<Xa -.c.c.4.6.L.c.C.S.B.x.kXlXR.k.D.m.8.J.J.C.5.M.v.U.U.>.Y.*X4XrX2X",
"pXdXpXpXpX_.J G.J.J.J.J.J.J.J.J.H.J.G &XuXuXpXiXpXiXpXpXeXeXrXD c.H.Z.J.c.M.v.K.B.G.^.kXR.k.k.V.8.J.J.J.G.G.Z.b.s.l.Y.0X8XtXtXuX",
"pXpXiXiXuX/.J B.G.J.J.G.J.C.G.G.J.M.d oXuXiXpXeXpXpXiXpXiXpX3XS x.L.Z.H.M.C.C.G.Z.@XkXzXR.k.O k.J.J.J.J.J.G.k.+.x.J .XwXtXuXeXpX",
"uXeXpXiXeX).<.C.L.J.J.J.C.7.M.H.c.C.K >XgXuXpXpXdXqXqXpXpXiXtXD c.8.L.C.J.J.J.W.{.kXR.R.T.k.V.K.J.J.J.J.G.G.%.b.Z.-.`.pXpXpXpXpX",
"qXqXeXjX6Xu.A m.J.B.C.Z.M.H.8.4.Z.c.M }.rXtXrX3X3XpXgXrXeXeX2XV 3.c.x.x.B.M.M.Z.V.D.kXT.m x.F.l.F.M.V.J.W.w.o.B.M.F y.5XgXuXpXtX",
"2.j.j.u.0.D u M J J u N y N L =.=.M e 1.r.a.r.B.u.u.W.r.2.y.w.r M A A G I y y G M M P Z e I :.z.>.M y A [ o.n J A y [ 0.a.G.(.i.",
"F <.5.x.6.6.8.6.6.<.F N 1 /. X).%X%X%X%XoX[. X).0.1 K 5.A L w.6.c.4.6.L M y } W./.).%X).`.K.>.:X>.r.N p B _ 3.9.:.8.5.6.6.6.L F ",
"4.B.J.J.L.Z.B.G.J.J.J.4.D uXpXpXpXpXiXiXpXeXeXyX Xu c.J.H.J.G.J.Z.Z.J.G.C.K B.8XfXrXrXtXiXuXY.z.Y.fXr.J ` 6.J.P.l.s.m.8.4.c.L.4.",
"B.J./.Z.Z.J.G.G.J.G.J.B.D yXgXpXpXeXdXpXpXuXuX3X>XG L.B.J.J.J.J.J.Z.Z.B.Z.7._.pXdX0X4XuXiXpXhXG.F.3X1.&.@.J.J.@.s.J.Z.Z.Z.N.C.H.",
"J.H.B.J.J.J.J.B.c.J.J.m.S tXpXpXpXpXpXpXpXeXpXpXOXD J.G.8.8.M.8.J.J.J.J.B.3._.uX0XY.Y.tXpXpXjX-X&.tX0.E 3.W.b.+.b.Z.J.A.q.+.b._.",
"c.V.m.J.J.J.H.8.C.Z.J.3.a 7XpXuXpXpXpXwXj.jXpXpX Xu m.J.M.V.H.C.J.J.B.L.V.K N.aXtX*X9.e.yXpXpX6Xf.jXw.Y 3.Z.&.b.S.Z.S.5.+.N.C.x.",
"G 1.m.m.V.N.m.m.V.6.J J 2  X<X=X2X3X7X2XXXy.1XoXQ.1 J V.c.L x.V.m.6.L c.L M q.&.] e.|.{.e.7X3X&X!.e.e.( P O.) L -.x..._ J 1.4.L ",
"S { { 1.{ y = y y M N N p y K u i i o p }  .{ p.,.,.p.0.,.,.{ o 3 N N M 3 M t B s a / * & ] B u H T Y m Z Y 9 9 M 6 #.3.{ A 1.7.",
"7X5X5XdX3XN.N c.8.C.G.J.C.m.J.m.M.V.M }.5XXXXXjXeXeXjXpXqXeXqXS L 5.V.c.V.Z.V.J.G.m.q.+.n 5.+._ #.....+.X.o.X.^ ..s N.Q.Q.=XuX7X",
"dXuXpXpXuX).<.J.J.J.J.J.J.L.J.G._.G.G ,XjXwXj.5XiXeXeXiXpXpX3X[ n.#.W.J.4.c.c.Z.G.J.G.V.B #.x.o.E ` o.o.^ o.` ^ B C _ ~.XX6XqXeX",
"pXpXiXiXuX/.H Z.A.B.Z.G.J.H.H.H.Z.m.g oXiXiXg.7XuX5XiXpXpXpXqXD x.q.b.Z.b.q.B.B.J.J.J.6.N #.o.-.` ..` ~ E W E 5 ` _ f.>XeXjX7Xg.",
"uXrXpXpXuX)._ b.q.5.Z.J.C.6.c.m.6.B.f -XiXjXg.=X!.(.rXiXpXpXrXH x.#.&.&.+.Z.J.J.J.J.N.5.9 o.X.) ` R l T k T j x R E  .5XiX5XQ.=X",
"7XqXdXuX9Xy.9 $.) N.x.B.c.m.c.m.M.4.i }.7X8Xe.} +XjXdX7X2XyX>Xp C B ` b 5.6.O.m.8.m.N.B W ) / 4 k v v R j v j T l U _ +Xg.Q.>X9X",
"S D D S p r O 6 * u 1 y 1 2 e u a 2 O - f D q : r i D f f g ( * = 7 0 4 p 9 0 M e 1 1 * 5 7 x l h l l z l j v 4 l 4 & c 4 < D f "
};
